<?xml version="1.0" encoding="UTF-8"?>
<svg version="1.1" xmlns="http://www.w3.org/2000/svg" width="400" height="300">
<path d="M0 0 C0.68185364 -0.00191345 1.36370728 -0.0038269 2.06622314 -0.00579834 C3.50509003 -0.00715456 4.94396938 -0.00349755 6.3828125 0.00488281 C8.55758003 0.01552447 10.73150905 0.00500329 12.90625 -0.0078125 C27.33266802 -0.02851513 27.33266802 -0.02851513 33.828125 2.265625 C37.07156564 6.28849352 37.20297347 9.62590321 37.19140625 14.69140625 C37.19215401 15.75103828 37.19215401 15.75103828 37.19291687 16.83207703 C37.19058433 18.32224345 37.18090422 19.81241442 37.16430664 21.30249023 C37.14080581 23.56075081 37.14374045 25.81782069 37.15039062 28.07617188 C37.08323727 45.58414753 37.08323727 45.58414753 33.11328125 50.3046875 C32.01306641 51.08972656 32.01306641 51.08972656 30.890625 51.890625 C29.99601562 52.54804688 29.10140625 53.20546875 28.1796875 53.8828125 C27.65922852 54.25116211 27.13876953 54.61951172 26.60253906 54.99902344 C24.5591607 56.45761548 22.54929509 57.95699873 20.5390625 59.4609375 C12.11836858 65.74421239 3.60416692 71.88719086 -5.00439453 77.91015625 C-8.53398609 80.38412997 -12.0347596 82.88818832 -15.49609375 85.45703125 C-16.18799805 85.97048096 -16.87990234 86.48393066 -17.59277344 87.01293945 C-18.90782912 87.99286291 -20.21983938 88.97689064 -21.52832031 89.96557617 C-25.9545131 93.265625 -25.9545131 93.265625 -28.171875 93.265625 C-26.45093906 96.51628177 -24.63228459 98.83255964 -21.921875 101.265625 C-19.18006227 103.90538515 -19.18006227 103.90538515 -19.109375 107.015625 C-20.171875 109.265625 -20.171875 109.265625 -23.171875 111.265625 C-28.2859397 111.95606388 -32.77449613 111.96431444 -37.421875 109.640625 C-38.329375 108.856875 -39.236875 108.073125 -40.171875 107.265625 C-40.80351562 106.73710937 -41.43515625 106.20859375 -42.0859375 105.6640625 C-43.80298221 104.22065041 -45.49433216 102.75456835 -47.171875 101.265625 C-53.18527822 104.92624554 -53.18527822 104.92624554 -57.07421875 110.5234375 C-57.34633517 112.05247263 -57.5901801 113.58682499 -57.8046875 115.125 C-58.65292512 120.07004485 -61.47898265 122.74935227 -65.359375 125.640625 C-70.29742365 128.15185487 -75.12432552 128.17558235 -80.3828125 126.60546875 C-84.67128827 124.76413436 -87.50086551 122.56071128 -89.55078125 118.32421875 C-91.14573074 113.03781384 -90.79937749 108.04905312 -88.984375 102.890625 C-86.21974124 98.88667265 -82.72906592 96.00808035 -78.171875 94.265625 C-77.058125 94.20375 -75.944375 94.141875 -74.796875 94.078125 C-70.3968704 93.09191707 -68.88036924 91.61395609 -66.21875 88.09375 C-64.99872165 86.25161037 -64.99872165 86.25161037 -64.921875 83.765625 C-66.43935649 80.73066202 -68.38271754 78.47620284 -70.69921875 76.01171875 C-74.10197488 71.97715114 -74.55773701 68.60671127 -74.421875 63.4609375 C-74.06967333 60.36816657 -73.30017857 58.54070812 -71.171875 56.265625 C-68.921875 55.515625 -68.921875 55.515625 -66.171875 56.265625 C-63.61931923 58.40955958 -61.37936149 60.77186505 -59.171875 63.265625 C-54.62904981 61.72640894 -52.42110967 57.98789968 -49.734375 54.265625 C-49.21214355 53.5550293 -48.68991211 52.84443359 -48.15185547 52.11230469 C-46.4832804 49.83620735 -44.82710411 47.55144065 -43.171875 45.265625 C-42.11098265 43.8122769 -41.04978845 42.35914908 -39.98828125 40.90625 C-33.49164389 31.98408183 -27.1284312 22.97164217 -20.84033203 13.90136719 C-19.29625964 11.68060789 -17.73836054 9.47060897 -16.171875 7.265625 C-15.48222656 6.29238281 -14.79257813 5.31914063 -14.08203125 4.31640625 C-10.10215261 0.04353041 -5.59949217 0.01004779 0 0 Z " fill="#9AA29D" transform="translate(230.171875,81.734375)"/>
<path d="M0 0 C3.45317143 1.26580688 5.67273348 4.10389947 8.15879822 6.71569824 C9.35335841 7.93845343 10.54802309 9.16110655 11.74278259 10.38366699 C13.61324907 12.31632667 15.48026515 14.25221051 17.34458923 16.1907959 C19.14914926 18.06175079 20.96578368 19.92032867 22.78379822 21.77819824 C23.33603561 22.36049194 23.88827301 22.94278564 24.45724487 23.54272461 C27.58311409 26.7277899 29.62165977 28.16831108 34.03770447 28.74694824 C35.35020447 31.30944824 35.35020447 31.30944824 36.03770447 33.74694824 C36.69770447 33.74694824 37.35770447 33.74694824 38.03770447 33.74694824 C38.12020447 34.53069824 38.20270447 35.31444824 38.28770447 36.12194824 C38.53520447 36.98819824 38.78270447 37.85444824 39.03770447 38.74694824 C40.80362334 39.75610858 40.80362334 39.75610858 43.03770447 40.74694824 C45.32937806 42.53423434 47.3397184 44.38023479 49.03770447 46.74694824 C49.10020447 49.49694824 49.10020447 49.49694824 48.03770447 51.74694824 C43.56558788 54.7283593 39.28112149 54.35050704 34.03770447 53.74694824 C30.78770447 52.12194824 30.78770447 52.12194824 28.03770447 49.74694824 C27.40606384 49.21843262 26.77442322 48.68991699 26.12364197 48.14538574 C24.40659725 46.70197365 22.71524731 45.23589159 21.03770447 43.74694824 C15.02430124 47.40756878 15.02430124 47.40756878 11.13536072 53.00476074 C10.8632443 54.53379587 10.61939937 56.06814823 10.40489197 57.60632324 C9.55665435 62.5513681 6.73059682 65.23067551 2.85020447 68.12194824 C-2.08784418 70.63317811 -6.91474605 70.6569056 -12.17323303 69.08679199 C-16.4617088 67.2454576 -19.29128604 65.04203452 -21.34120178 60.80554199 C-22.93615127 55.51913708 -22.58979802 50.53037637 -20.77479553 45.37194824 C-18.01016177 41.3679959 -14.51948645 38.48940359 -9.96229553 36.74694824 C-8.84854553 36.68507324 -7.73479553 36.62319824 -6.58729553 36.55944824 C-2.18729093 35.57324031 -0.67078977 34.09527933 1.99082947 30.57507324 C3.21085782 28.73293361 3.21085782 28.73293361 3.28770447 26.24694824 C1.77022298 23.21198526 -0.17313807 20.95752609 -2.48963928 18.49304199 C-5.88284667 14.4697961 -6.40142434 11.02280953 -6.28260803 5.87976074 C-5.96229553 3.74694824 -5.96229553 3.74694824 -4.21229553 1.12194824 C-1.96229553 -0.25305176 -1.96229553 -0.25305176 0 0 Z " fill="#1B6EB9" transform="translate(161.96229553222656,139.2530517578125)"/>
<path d="M0 0 C0.68185364 -0.00191345 1.36370728 -0.0038269 2.06622314 -0.00579834 C3.50509003 -0.00715456 4.94396938 -0.00349755 6.3828125 0.00488281 C8.55758003 0.01552447 10.73150905 0.00500329 12.90625 -0.0078125 C27.33266802 -0.02851513 27.33266802 -0.02851513 33.828125 2.265625 C37.09913329 6.30905854 37.19236913 9.667365 37.15625 14.76171875 C37.15437683 15.47288345 37.15250366 16.18404816 37.15057373 16.91676331 C37.14387553 18.41534133 37.1300055 19.91390253 37.109375 21.41235352 C37.07827147 23.69238774 37.06840286 25.97172782 37.0625 28.25195312 C36.98710033 40.26461794 36.98710033 40.26461794 35.828125 46.265625 C35.498125 46.265625 35.168125 46.265625 34.828125 46.265625 C34.498125 33.065625 34.168125 19.865625 33.828125 6.265625 C30.11645353 8.12146074 28.69448537 9.40517322 26.26953125 12.6328125 C21.53726405 17.99348374 21.53726405 17.99348374 17.83178711 18.58349609 C15.54687579 18.65869251 13.29946385 18.61517204 11.015625 18.515625 C9.83323242 18.48855469 9.83323242 18.48855469 8.62695312 18.4609375 C6.69348239 18.41406548 4.76064215 18.3423291 2.828125 18.265625 C2.539375 18.86890625 2.250625 19.4721875 1.953125 20.09375 C0.54890778 22.80466936 -1.14633048 24.98688742 -3.171875 27.265625 C-3.831875 27.265625 -4.491875 27.265625 -5.171875 27.265625 C-5.44338379 27.86004395 -5.71489258 28.45446289 -5.99462891 29.06689453 C-7.15098216 31.22660366 -8.3155647 32.6897623 -10.0078125 34.4453125 C-10.57185791 35.03779785 -11.13590332 35.6302832 -11.71704102 36.24072266 C-12.62280884 37.18117432 -12.62280884 37.18117432 -13.546875 38.140625 C-18.94011904 43.81853385 -24.14338635 49.60845318 -29.17529297 55.60888672 C-32.02939473 58.99794259 -35.01820257 62.14699338 -38.171875 65.265625 C-39.78795894 67.02558923 -41.39252915 68.796208 -42.984375 70.578125 C-44.16966797 71.90263672 -44.16966797 71.90263672 -45.37890625 73.25390625 C-46.26642578 74.24970703 -46.26642578 74.24970703 -47.171875 75.265625 C-50.84283103 74.69883466 -52.40134577 73.33510844 -54.88671875 70.6328125 C-55.57314453 69.90964844 -56.25957031 69.18648438 -56.96679688 68.44140625 C-58.3972753 66.90530453 -59.8217584 65.36359819 -61.24023438 63.81640625 C-61.92794922 63.09582031 -62.61566406 62.37523437 -63.32421875 61.6328125 C-63.94288818 60.96362793 -64.56155762 60.29444336 -65.19897461 59.60498047 C-67.15664186 57.96589559 -67.15664186 57.96589559 -69.91235352 58.55517578 C-70.65799561 58.78962402 -71.4036377 59.02407227 -72.171875 59.265625 C-71.841875 58.275625 -71.511875 57.285625 -71.171875 56.265625 C-69.109375 55.828125 -69.109375 55.828125 -66.171875 56.265625 C-63.59927328 58.38642683 -61.37933001 60.77190061 -59.171875 63.265625 C-54.62904981 61.72640894 -52.42110967 57.98789968 -49.734375 54.265625 C-49.21214355 53.5550293 -48.68991211 52.84443359 -48.15185547 52.11230469 C-46.4832804 49.83620735 -44.82710411 47.55144065 -43.171875 45.265625 C-42.11098265 43.8122769 -41.04978845 42.35914908 -39.98828125 40.90625 C-33.49164389 31.98408183 -27.1284312 22.97164217 -20.84033203 13.90136719 C-19.29625964 11.68060789 -17.73836054 9.47060897 -16.171875 7.265625 C-15.48222656 6.29238281 -14.79257813 5.31914063 -14.08203125 4.31640625 C-10.10215261 0.04353041 -5.59949217 0.01004779 0 0 Z " fill="#E4E6E5" transform="translate(230.171875,81.734375)"/>
<path d="M0 0 C1.66413655 3.3282731 0.81867406 6.99733973 0.5625 10.625 C0.51029297 11.42679688 0.45808594 12.22859375 0.40429688 13.0546875 C0.27451629 15.03679103 0.13790265 17.01844499 0 19 C-1.485 19.495 -1.485 19.495 -3 20 C-3 20.66 -3 21.32 -3 22 C-5.66238608 23.93628079 -8.236821 25.66080934 -11.25 27 C-13.49798158 28.2845609 -13.89352734 29.71328984 -15 32 C-15.99 32.33 -16.98 32.66 -18 33 C-18.33 33.99 -18.66 34.98 -19 36 C-19.66 36 -20.32 36 -21 36 C-21 36.66 -21 37.32 -21 38 C-22.71951974 39.53851766 -24.50187497 41.00731759 -26.3125 42.4375 C-30.16467002 45.45235569 -30.16467002 45.45235569 -33.73046875 48.78515625 C-35 50 -35 50 -37 50 C-37.2578125 50.59296875 -37.515625 51.1859375 -37.78125 51.796875 C-39.09769895 54.17660965 -40.42580782 55.50978792 -42.5 57.25 C-43.41265625 58.03117187 -43.41265625 58.03117187 -44.34375 58.828125 C-46 60 -46 60 -48 60 C-48 60.66 -48 61.32 -48 62 C-49.609375 63.69140625 -49.609375 63.69140625 -51.75 65.5625 C-52.79414063 66.49255859 -52.79414063 66.49255859 -53.859375 67.44140625 C-57.41379697 70.02938867 -57.41379697 70.02938867 -60 70 C-62.578125 67.91015625 -62.578125 67.91015625 -65.25 65.0625 C-66.14203125 64.12535156 -67.0340625 63.18820313 -67.953125 62.22265625 C-68.96632812 61.12244141 -68.96632812 61.12244141 -70 60 C-68.86111328 58.88044922 -68.86111328 58.88044922 -67.69921875 57.73828125 C-65.05766415 55.05849865 -62.693198 52.27733473 -60.33203125 49.35546875 C-59.67267578 48.68451172 -59.67267578 48.68451172 -59 48 C-58.34 48 -57.68 48 -57 48 C-56.65001953 47.17242187 -56.65001953 47.17242187 -56.29296875 46.328125 C-54.65980716 43.38744733 -52.60660793 41.20922749 -50.3125 38.75 C-47.35459165 35.55516282 -44.40880654 32.35785975 -41.5625 29.0625 C-38.01395045 24.96932893 -34.33684 20.99714466 -30.64282227 17.03540039 C-28.01792894 14.23723206 -28.01792894 14.23723206 -26 11 C-25.34 11 -24.68 11 -24 11 C-23.7525 10.443125 -23.505 9.88625 -23.25 9.3125 C-21.67651957 6.4015612 -20.39342314 4.33273412 -18 2 C-15.10970366 1.2690821 -12.28310521 1.25495514 -9.3125 1.25 C-4.25421679 1.6180862 -4.25421679 1.6180862 0 0 Z " fill="#B6BCB9" transform="translate(251,98)"/>
<path d="M0 0 C0 3 0 3 -2 6 C-1.41605469 6.10570312 -0.83210938 6.21140625 -0.23046875 6.3203125 C2.3153214 7.09608743 3.69005355 8.13319203 5.6875 9.875 C6.28949219 10.38804687 6.89148438 10.90109375 7.51171875 11.4296875 C9 13 9 13 10 16 C10.66 16.66 11.32 17.32 12 18 C11.70444979 23.68365784 9.69796382 28.70236637 6 33 C1.43802963 36.39911518 -2.02292507 37.68063451 -7.7265625 37.37890625 C-12.34674195 36.60887634 -16.14606809 34.96882346 -19.38671875 31.52734375 C-22.62381214 26.72281567 -22.76157174 21.61891348 -22 16 C-20.05526866 10.47286882 -16.97327737 7.88307566 -12.125 4.8125 C-10 4 -10 4 -6.4375 3.5625 C-3.01805976 3.00295523 -2.00213115 2.70876567 0 0 Z " fill="#258BCF" transform="translate(162,172)"/>
<path d="M0 0 C3.45317143 1.26580688 5.67273348 4.10389947 8.15879822 6.71569824 C9.35335841 7.93845343 10.54802309 9.16110655 11.74278259 10.38366699 C13.61324907 12.31632667 15.48026515 14.25221051 17.34458923 16.1907959 C19.14914926 18.06175079 20.96578368 19.92032867 22.78379822 21.77819824 C23.33603561 22.36049194 23.88827301 22.94278564 24.45724487 23.54272461 C27.58311409 26.7277899 29.62165977 28.16831108 34.03770447 28.74694824 C35.35020447 31.30944824 35.35020447 31.30944824 36.03770447 33.74694824 C36.69770447 33.74694824 37.35770447 33.74694824 38.03770447 33.74694824 C38.12020447 34.53069824 38.20270447 35.31444824 38.28770447 36.12194824 C38.53520447 36.98819824 38.78270447 37.85444824 39.03770447 38.74694824 C40.80362334 39.75610858 40.80362334 39.75610858 43.03770447 40.74694824 C45.32937806 42.53423434 47.3397184 44.38023479 49.03770447 46.74694824 C49.10020447 49.49694824 49.10020447 49.49694824 48.03770447 51.74694824 C44.67419434 53.98928833 43.41460391 54.0179304 39.47520447 53.99694824 C38.50454041 54.00210449 37.53387634 54.00726074 36.53379822 54.01257324 C34.03770447 53.74694824 34.03770447 53.74694824 32.03770447 51.74694824 C36.65770447 51.74694824 41.27770447 51.74694824 46.03770447 51.74694824 C45.54270447 49.76694824 45.54270447 49.76694824 45.03770447 47.74694824 C44.37770447 47.74694824 43.71770447 47.74694824 43.03770447 47.74694824 C43.03770447 47.08694824 43.03770447 46.42694824 43.03770447 45.74694824 C42.39832947 45.64382324 41.75895447 45.54069824 41.10020447 45.43444824 C40.41957947 45.20757324 39.73895447 44.98069824 39.03770447 44.74694824 C38.70770447 43.75694824 38.37770447 42.76694824 38.03770447 41.74694824 C37.04770447 41.41694824 36.05770447 41.08694824 35.03770447 40.74694824 C34.3710378 39.41361491 33.70437113 38.08028158 33.03770447 36.74694824 C30.44087957 33.93372127 27.7024883 31.4525369 24.72520447 29.05944824 C23.83832947 28.29632324 22.95145447 27.53319824 22.03770447 26.74694824 C22.03770447 26.08694824 22.03770447 25.42694824 22.03770447 24.74694824 C21.37770447 24.74694824 20.71770447 24.74694824 20.03770447 24.74694824 C19.37770447 23.75694824 18.71770447 22.76694824 18.03770447 21.74694824 C15.97845308 21.02312357 15.97845308 21.02312357 14.03770447 20.74694824 C14.03770447 20.08694824 14.03770447 19.42694824 14.03770447 18.74694824 C13.37770447 18.74694824 12.71770447 18.74694824 12.03770447 18.74694824 C11.37770447 17.75694824 10.71770447 16.76694824 10.03770447 15.74694824 C9.04770447 15.41694824 8.05770447 15.08694824 7.03770447 14.74694824 C7.03770447 16.06694824 7.03770447 17.38694824 7.03770447 18.74694824 C6.64582947 19.51007324 6.25395447 20.27319824 5.85020447 21.05944824 C4.6329142 25.0858699 6.16183792 27.06736387 8.03770447 30.74694824 C7.25395447 30.89132324 6.47020447 31.03569824 5.66270447 31.18444824 C3.07349429 31.62493749 3.07349429 31.62493749 1.03770447 32.74694824 C1.38832947 32.19007324 1.73895447 31.63319824 2.10020447 31.05944824 C3.34582326 27.9869219 3.19883511 26.86748685 2.03770447 23.74694824 C0.61232666 21.90185277 -0.89296055 20.19171986 -2.48963928 18.49304199 C-5.88284667 14.4697961 -6.40142434 11.02280953 -6.28260803 5.87976074 C-5.96229553 3.74694824 -5.96229553 3.74694824 -4.21229553 1.12194824 C-1.96229553 -0.25305176 -1.96229553 -0.25305176 0 0 Z " fill="#227FC8" transform="translate(161.96229553222656,139.2530517578125)"/>
<path d="M0 0 C0.33 0 0.66 0 1 0 C1.22437536 3.9827585 1.3866231 7.96302306 1.49438477 11.95068359 C1.5613211 13.96453152 1.67575397 15.97662057 1.79101562 17.98828125 C2.00855463 27.60833937 2.00855463 27.60833937 -0.97314453 31.72265625 C-6.77985147 37 -6.77985147 37 -10 37 C-10 37.66 -10 38.32 -10 39 C-10.66 39 -11.32 39 -12 39 C-12 31.41 -12 23.82 -12 16 C-12.66 15.67 -13.32 15.34 -14 15 C-13.36384766 14.38125 -13.36384766 14.38125 -12.71484375 13.75 C-8.73005147 9.82651222 -4.99556752 5.77278943 -1.3828125 1.50390625 C-0.92648438 1.00761719 -0.47015625 0.51132813 0 0 Z " fill="#C0C5C3" transform="translate(224,111)"/>
<path d="M0 0 C1.66413655 3.3282731 0.81867406 6.99733973 0.5625 10.625 C0.51029297 11.42679688 0.45808594 12.22859375 0.40429688 13.0546875 C0.27451629 15.03679103 0.13790265 17.01844499 0 19 C-0.99 19.33 -1.98 19.66 -3 20 C-3 20.66 -3 21.32 -3 22 C-5.68197129 23.95052457 -8.32846537 25.67330748 -11.3125 27.125 C-13.1891646 27.88818611 -13.1891646 27.88818611 -14 30 C-14.02886338 25.52084672 -14.04675187 21.04171709 -14.0625 16.5625 C-14.07087891 15.28310547 -14.07925781 14.00371094 -14.08789062 12.68554688 C-14.09111328 11.47060547 -14.09433594 10.25566406 -14.09765625 9.00390625 C-14.10289307 7.87799072 -14.10812988 6.7520752 -14.11352539 5.59204102 C-14 3 -14 3 -13 2 C-9.89957227 1.67553663 -6.7979275 1.48665559 -3.6875 1.28125 C-1.08403248 1.29392201 -1.08403248 1.29392201 0 0 Z " fill="#B0B6B2" transform="translate(251,98)"/>
<path d="M0 0 C0 3 0 3 -0.5 5.25 C-1.11268385 8.10824237 -1.11268385 8.10824237 -0.9375 11.5 C-0.99995726 14.99760659 -1.20727713 17.01212855 -3 20 C-6.87166315 22.39132136 -11.56257432 22.92148154 -16 22 C-19 19.5 -19 19.5 -21 17 C-21 19.97 -21 22.94 -21 26 C-21.33 26 -21.66 26 -22 26 C-22.3221077 19.96346301 -22.56806924 15.16754855 -19 10 C-15.01915725 6.32537593 -11.82588885 4.22423196 -6.4375 3.5625 C-3.01805976 3.00295523 -2.00213115 2.70876567 0 0 Z " fill="#2BA2DD" transform="translate(162,172)"/>
<path d="M0 0 C2.004001 0.25492592 3.98659787 0.66597641 5.9609375 1.09375 C5.9609375 1.75375 5.9609375 2.41375 5.9609375 3.09375 C6.8890625 3.2175 6.8890625 3.2175 7.8359375 3.34375 C9.9609375 4.09375 9.9609375 4.09375 11.0234375 5.96875 C11.4875 7.020625 11.4875 7.020625 11.9609375 8.09375 C13.5021687 9.80296589 13.5021687 9.80296589 14.9609375 11.09375 C10.54599974 18.18918568 10.54599974 18.18918568 6.9609375 20.09375 C4.8984375 20.09375 4.8984375 20.09375 2.9609375 19.09375 C1.93481801 17.44303604 0.93785607 15.77404994 -0.0390625 14.09375 C-2.73272265 11.66945587 -4.59354869 10.2422546 -8.0390625 9.09375 C-4.08078349 0.18762223 -4.08078349 0.18762223 0 0 Z " fill="#1F5B92" transform="translate(168.0390625,168.90625)"/>
<path d="M0 0 C0.33 0 0.66 0 1 0 C1.22236782 3.06206505 1.42834898 6.12376646 1.625 9.1875 C1.68945312 10.05181641 1.75390625 10.91613281 1.8203125 11.80664062 C2.3187966 19.93816243 2.3187966 19.93816243 0 24 C-0.66 24.66 -1.32 25.32 -2 26 C-6.06108752 25.80041664 -8.06026394 23.24590088 -10.75 20.4375 C-11.54921875 19.61121094 -12.3484375 18.78492188 -13.171875 17.93359375 C-13.77515625 17.29550781 -14.3784375 16.65742188 -15 16 C-14.29875 15.319375 -13.5975 14.63875 -12.875 13.9375 C-10.15381461 11.23957261 -7.73904225 8.33406548 -5.33203125 5.35546875 C-4.89246094 4.90816406 -4.45289063 4.46085938 -4 4 C-3.34 4 -2.68 4 -2 4 C-1.34 2.68 -0.68 1.36 0 0 Z " fill="#BEC5C5" transform="translate(196,142)"/>
<path d="M0 0 C0 8.58 0 17.16 0 26 C0.66 26.33 1.32 26.66 2 27 C1.34 27 0.68 27 0 27 C0 27.66 0 28.32 0 29 C-2.5 30.625 -2.5 30.625 -5 32 C-6.11984119 28.64047644 -6.028066 26.33089543 -5.87890625 22.80078125 C-5.83056641 21.59228516 -5.78222656 20.38378906 -5.73242188 19.13867188 C-5.67634766 17.87603516 -5.62027344 16.61339844 -5.5625 15.3125 C-5.51029297 14.03826172 -5.45808594 12.76402344 -5.40429688 11.45117188 C-5.27449555 8.30053961 -5.1395244 5.15021423 -5 2 C-1.125 0 -1.125 0 0 0 Z " fill="#B1B7B5" transform="translate(230,107)"/>
<path d="M0 0 C4.46795051 1.40421302 6.76935712 3.6843402 10 7 C10.99 7.33 11.98 7.66 13 8 C13 8.66 13 9.32 13 10 C13.66 10 14.32 10 15 10 C15.33 11.32 15.66 12.64 16 14 C12.82587823 15.58706088 9.46361333 15.28477127 6 15 C3 14 3 14 1 13 C1 12.01 1 11.02 1 10 C1.66 10 2.32 10 3 10 C3 9.34 3 8.68 3 8 C0.525 7.01 0.525 7.01 -2 6 C-1.125 1.125 -1.125 1.125 0 0 Z " fill="#1768B5" transform="translate(192,177)"/>
<path d="M0 0 C1.37562854 1.28965176 2.70766393 2.62689293 4 4 C4 4.66 4 5.32 4 6 C4.66 6 5.32 6 6 6 C6.12375 7.175625 6.12375 7.175625 6.25 8.375 C6.4975 9.24125 6.745 10.1075 7 11 C8.76591887 12.00916033 8.76591887 12.00916033 11 13 C13.29167359 14.7872861 15.30201394 16.63328655 17 19 C17.0625 21.75 17.0625 21.75 16 24 C12.63648987 26.24234009 11.37689944 26.27098215 7.4375 26.25 C6.46683594 26.25515625 5.49617187 26.2603125 4.49609375 26.265625 C2 26 2 26 0 24 C4.62 24 9.24 24 14 24 C13.67 22.68 13.34 21.36 13 20 C12.34 20 11.68 20 11 20 C11 19.34 11 18.68 11 18 C10.360625 17.896875 9.72125 17.79375 9.0625 17.6875 C8.0415625 17.3471875 8.0415625 17.3471875 7 17 C6.67 16.01 6.34 15.02 6 14 C5.01 13.67 4.02 13.34 3 13 C2.3125 10.9375 2.3125 10.9375 2 9 C2.66 8.67 3.32 8.34 4 8 C2.02 5.69 0.04 3.38 -2 1 C-1.34 0.67 -0.68 0.34 0 0 Z " fill="#2784C4" transform="translate(194,167)"/>
<path d="M0 0 C0.99 0 1.98 0 3 0 C2.7321679 6.02622231 2.14253112 10.31239899 -2 15 C-7.28878778 18.94066541 -11.46577665 19.77245664 -18 19 C-18.99 18.67 -19.98 18.34 -21 18 C-21.33 17.01 -21.66 16.02 -22 15 C-21.32453125 14.86722656 -20.6490625 14.73445312 -19.953125 14.59765625 C-18.61507812 14.33275391 -18.61507812 14.33275391 -17.25 14.0625 C-16.36828125 13.88847656 -15.4865625 13.71445313 -14.578125 13.53515625 C-12.9995368 13.20747961 -11.4277645 12.84011067 -9.875 12.40625 C-7.11932354 11.80918677 -4.73014528 12.44156119 -2 13 C-2.020625 12.195625 -2.04125 11.39125 -2.0625 10.5625 C-2 8 -2 8 -1 7 C-0.63239269 4.67182036 -0.29758419 2.3381615 0 0 Z " fill="#357FC1" transform="translate(170,190)"/>
<path d="M0 0 C0 3.42791372 -0.19834312 5.07230757 -2 8 C-4.6003549 9.07107129 -7.23898181 9.52072892 -10 10 C-11.33574432 10.32353669 -12.66988425 10.65405061 -14 11 C-14 11.66 -14 12.32 -14 13 C-14.99 13 -15.98 13 -17 13 C-17 14.32 -17 15.64 -17 17 C-18.32 17 -19.64 17 -21 17 C-21 19.97 -21 22.94 -21 26 C-21.33 26 -21.66 26 -22 26 C-22.3221077 19.96346301 -22.56806924 15.16754855 -19 10 C-15.01915725 6.32537593 -11.82588885 4.22423196 -6.4375 3.5625 C-3.01805976 3.00295523 -2.00213115 2.70876567 0 0 Z " fill="#65B3D1" transform="translate(162,172)"/>
<path d="M0 0 C2.64146985 1.01861605 4.01759712 2.38508435 5.99316406 4.40844727 C6.70214844 5.12709961 7.41113281 5.84575195 8.14160156 6.58618164 C8.87121094 7.34092773 9.60082031 8.09567383 10.35253906 8.87329102 C11.47015625 10.01121094 11.47015625 10.01121094 12.61035156 11.17211914 C14.448006 13.04511308 16.27829631 14.92474712 18.10253906 16.81079102 C16.26269531 17.45922852 16.26269531 17.45922852 14.10253906 17.81079102 C11.54003906 15.43579102 11.54003906 15.43579102 9.10253906 12.81079102 C8.11253906 12.48079102 7.12253906 12.15079102 6.10253906 11.81079102 C6.10253906 11.15079102 6.10253906 10.49079102 6.10253906 9.81079102 C5.44253906 9.81079102 4.78253906 9.81079102 4.10253906 9.81079102 C2.10253906 6.81079102 2.10253906 6.81079102 2.10253906 3.81079102 C-0.86746094 3.31579102 -0.86746094 3.31579102 -3.89746094 2.81079102 C-4.22746094 6.11079102 -4.55746094 9.41079102 -4.89746094 12.81079102 C-5.22746094 12.81079102 -5.55746094 12.81079102 -5.89746094 12.81079102 C-6.51815059 4.7418255 -6.51815059 4.7418255 -4.14746094 1.18579102 C-1.89746094 -0.18920898 -1.89746094 -0.18920898 0 0 Z " fill="#489AC4" transform="translate(161.8974609375,139.189208984375)"/>
<path d="M0 0 C3.83225427 -0.08912219 7.26562152 0.12132271 11 1 C10.67 1.99 10.34 2.98 10 4 C12.71604715 6.87420123 12.71604715 6.87420123 16 9 C16 9.66 16 10.32 16 11 C15.34 11.66 14.68 12.32 14 13 C14.33 13.66 14.66 14.32 15 15 C11.29115966 13.31268143 8.6722904 11.0622868 5.68359375 8.33984375 C3.92781556 6.78521084 3.92781556 6.78521084 1 6 C1.66 4.68 2.32 3.36 3 2 C2.01 1.67 1.02 1.34 0 1 C0 0.67 0 0.34 0 0 Z " fill="#1860AA" transform="translate(179,176)"/>
<path d="M0 0 C0.66 0.33 1.32 0.66 2 1 C1.96744792 2.98567708 1.93489583 4.97135417 1.90234375 6.95703125 C1.91736783 9.20305461 1.91736783 9.20305461 3 12 C2.0625 14.1875 2.0625 14.1875 1 16 C-0.12894876 15.06725891 -1.25300876 14.12859878 -2.375 13.1875 C-3.00148437 12.66542969 -3.62796875 12.14335937 -4.2734375 11.60546875 C-6 10 -6 10 -8 7 C-5.36 4.69 -2.72 2.38 0 0 Z " fill="#B1B9B6" transform="translate(189,150)"/>
<path d="M0 0 C4.30246865 0.50288595 6.21278486 1.73073249 9.20703125 4.81640625 C9.95791016 5.58017578 10.70878906 6.34394531 11.48242188 7.13085938 C12.25134766 7.93330078 13.02027344 8.73574219 13.8125 9.5625 C14.60076172 10.36880859 15.38902344 11.17511719 16.20117188 12.00585938 C18.14342916 13.99520169 20.07573661 15.99327271 22 18 C20.1484375 18.6328125 20.1484375 18.6328125 18 19 C15.625 16.875 15.625 16.875 13 14 C11.90832758 13.08898259 10.80416993 12.19269865 9.6875 11.3125 C8.3571875 10.1678125 8.3571875 10.1678125 7 9 C7 8.34 7 7.68 7 7 C6.34 7 5.68 7 5 7 C2.375 4.625 2.375 4.625 0 2 C0 1.34 0 0.68 0 0 Z " fill="#3695C8" transform="translate(177,157)"/>
<path d="M0 0 C4.875 3.625 4.875 3.625 6 7 C6.66 7.66 7.32 8.32 8 9 C7.34 9 6.68 9 6 9 C6.061875 9.763125 6.12375 10.52625 6.1875 11.3125 C5.96118351 14.55636969 5.25057928 14.83944389 3 17 C2.27802838 19.60611077 2.27802838 19.60611077 2 22 C0.02 22 -1.96 22 -4 22 C-4 21.01 -4 20.02 -4 19 C-3.01 19 -2.02 19 -1 19 C-0.49411853 17.08487728 0.00448391 15.16783078 0.5 13.25 C0.91765625 11.64898437 0.91765625 11.64898437 1.34375 10.015625 C2.14175989 6.86294698 2.14175989 6.86294698 2 3 C1.34 3 0.68 3 0 3 C0 2.01 0 1.02 0 0 Z " fill="#1E76CD" transform="translate(166,181)"/>
<path d="M0 0 C2 0.75 2 0.75 5 2.75 C6.65549531 3.13499891 8.3222433 3.47793135 10 3.75 C10 4.41 10 5.07 10 5.75 C6.82587823 7.33706088 3.46361333 7.03477127 0 6.75 C-3 5.75 -3 5.75 -5 4.75 C-5 3.76 -5 2.77 -5 1.75 C-2 -0.25 -2 -0.25 0 0 Z " fill="#1D5EA0" transform="translate(198,185.25)"/>
<path d="M0 0 C0.17835515 4.54805635 -0.00214565 7.8794254 -2 12 C-2.66 11.34 -3.32 10.68 -4 10 C-4.99 10 -5.98 10 -7 10 C-6.67 7.69 -6.34 5.38 -6 3 C-6.99 2.34 -7.98 1.68 -9 1 C-6.04335481 -0.4783226 -3.25770263 -0.06032783 0 0 Z " fill="#28A3DD" transform="translate(161,180)"/>
<path d="M0 0 C6.625 0.75 6.625 0.75 10 3 C9.608125 3.515625 9.21625 4.03125 8.8125 4.5625 C7.64207205 7.229478 7.64207205 7.229478 9.375 10.75 C9.91125 11.8225 10.4475 12.895 11 14 C10.21625 14.144375 9.4325 14.28875 8.625 14.4375 C6.03578982 14.87798925 6.03578982 14.87798925 4 16 C4.350625 15.443125 4.70125 14.88625 5.0625 14.3125 C6.28193911 11.30455019 6.11354113 10.04367909 5 7 C3.37347684 5.29413425 1.70993434 3.6222454 0 2 C0 1.34 0 0.68 0 0 Z " fill="#4B8CC6" transform="translate(159,156)"/>
<path d="M0 0 C1.58409994 0.11487748 3.16728963 0.24234508 4.75 0.375 C6.07257813 0.47941406 6.07257813 0.47941406 7.421875 0.5859375 C9.99066382 0.99850055 11.75841015 1.71160957 14 3 C8.67557535 7.96139569 8.67557535 7.96139569 5.8125 8.125 C2.721002 6.20613917 1.5822154 3.16443079 0 0 Z " fill="#1A5993" transform="translate(167,181)"/>
<path d="M0 0 C0.99 0 1.98 0 3 0 C2.72986927 6.07794143 2.02699406 10.16760713 -2 15 C-4.25 16.875 -4.25 16.875 -6 18 C-6.66 17.67 -7.32 17.34 -8 17 C-8 16.34 -8 15.68 -8 15 C-6.68 15 -5.36 15 -4 15 C-4 14.34 -4 13.68 -4 13 C-3.34 13 -2.68 13 -2 13 C-2.020625 12.195625 -2.04125 11.39125 -2.0625 10.5625 C-2 8 -2 8 -1 7 C-0.63239269 4.67182036 -0.29758419 2.3381615 0 0 Z " fill="#6A9ECC" transform="translate(170,190)"/>
<path d="M0 0 C1.76150391 -0.02126953 1.76150391 -0.02126953 3.55859375 -0.04296875 C6.5625 0.1875 6.5625 0.1875 8.5625 2.1875 C5.60294139 3.87963943 3.40550083 4.48271319 0 4.5 C-1.14662109 4.52513672 -1.14662109 4.52513672 -2.31640625 4.55078125 C-4.91647923 4.10546488 -5.78581388 3.18746498 -7.4375 1.1875 C-5.56506019 -0.68493981 -2.50090482 0.01369608 0 0 Z " fill="#144A7C" transform="translate(174.4375,178.8125)"/>
<path d="M0 0 C1.37562854 1.28965176 2.70766393 2.62689293 4 4 C4 4.66 4 5.32 4 6 C4.66 6 5.32 6 6 6 C6.12375 7.175625 6.12375 7.175625 6.25 8.375 C6.70909738 11.13056291 6.70909738 11.13056291 8.9375 12.125 C9.618125 12.41375 10.29875 12.7025 11 13 C11.99 14.485 11.99 14.485 13 16 C9.91173779 15.68647084 8.42791505 15.48731973 6.33984375 13.109375 C5.64568359 11.94148437 5.64568359 11.94148437 4.9375 10.75 C2.80869679 7.30100875 0.61089102 4.11298545 -2 1 C-1.34 0.67 -0.68 0.34 0 0 Z " fill="#81A7B4" transform="translate(194,167)"/>
<path d="M0 0 C1.2065625 0.0309375 1.2065625 0.0309375 2.4375 0.0625 C3.0625 2.4375 3.0625 2.4375 3.4375 5.0625 C1.4375 7.0625 1.4375 7.0625 -1.1875 7.1875 C-1.97125 7.14625 -2.755 7.105 -3.5625 7.0625 C-3.60504356 5.06295254 -3.60330783 3.06208364 -3.5625 1.0625 C-2.5625 0.0625 -2.5625 0.0625 0 0 Z " fill="#37BBED" transform="translate(152.5625,181.9375)"/>
<path d="M0 0 C2.69082872 0.17635452 5.32851446 0.61835921 8 1 C8 2.32 8 3.64 8 5 C4.37 5 0.74 5 -3 5 C-1 1 -1 1 0 0 Z " fill="#184A7A" transform="translate(166,169)"/>
<path d="M0 0 C0.66 0.33 1.32 0.66 2 1 C1.34 1.66 0.68 2.32 0 3 C-0.40047444 5.32275177 -0.7397104 7.65739357 -1 10 C-2.32 10 -3.64 10 -5 10 C-5 12.97 -5 15.94 -5 19 C-5.33 19 -5.66 19 -6 19 C-6.32481924 12.91264682 -6.47425406 8.27571913 -3 3 C-1.3125 1.125 -1.3125 1.125 0 0 Z " fill="#89CAE3" transform="translate(146,179)"/>
<path d="M0 0 C5.66129431 4.69766975 10.85228904 9.74723372 16 15 C12.25 16.125 12.25 16.125 10 15 C9.7525 14.2575 9.505 13.515 9.25 12.75 C8.11744352 9.72979161 8.11744352 9.72979161 5 7.5 C2.0126953 5.01057942 1.04573287 3.66006504 0 0 Z " fill="#4390B8" transform="translate(183,160)"/>
<path d="M0 0 C8.12538516 0.19098128 8.12538516 0.19098128 11.5 3.3125 C12.79229701 5.62786547 13.61413017 7.39537864 14 10 C10.29115966 8.31268143 7.6722904 6.0622868 4.68359375 3.33984375 C2.92781556 1.78521084 2.92781556 1.78521084 0 1 C0 0.67 0 0.34 0 0 Z " fill="#638EB7" transform="translate(180,181)"/>
<path d="M0 0 C1.32 0.99 2.64 1.98 4 3 C3.6875 5.375 3.6875 5.375 3 8 C-0.36351013 10.24234009 -1.62310056 10.27098215 -5.5625 10.25 C-6.53316406 10.25515625 -7.50382813 10.2603125 -8.50390625 10.265625 C-11 10 -11 10 -13 8 C-8.38 8 -3.76 8 1 8 C0.67 5.36 0.34 2.72 0 0 Z " fill="#82ACCA" transform="translate(207,183)"/>
<path d="M0 0 C-2.14775645 2.38639606 -3.67291626 3.87068782 -6.6875 5.0625 C-7.450625 5.371875 -8.21375 5.68125 -9 6 C-9.33 6.99 -9.66 7.98 -10 9 C-10.33 7.35 -10.66 5.7 -11 4 C-7.26280719 0.48264206 -5.13496308 -0.47767098 0 0 Z " fill="#A9B0AF" transform="translate(211,169)"/>
<path d="M0 0 C2.41498287 1.24644277 3.47835228 2.73832103 4.9375 5 C0.4825 4.01 0.4825 4.01 -4.0625 3 C-4.3925 6.3 -4.7225 9.6 -5.0625 13 C-5.3925 13 -5.7225 13 -6.0625 13 C-6.68318966 4.93103448 -6.68318966 4.93103448 -4.3125 1.375 C-2.0625 0 -2.0625 0 0 0 Z " fill="#72B1D0" transform="translate(162.0625,139)"/>
<path d="M0 0 C0.33 0.66 0.66 1.32 1 2 C1.66 2 2.32 2 3 2 C3.33 2.66 3.66 3.32 4 4 C4.99 4 5.98 4 7 4 C8.60546875 5.75 8.60546875 5.75 10.1875 8 C10.71730469 8.7425 11.24710938 9.485 11.79296875 10.25 C12.19128906 10.8275 12.58960938 11.405 13 12 C12.01 12.495 12.01 12.495 11 13 C11 12.34 11 11.68 11 11 C10.34 11 9.68 11 9 11 C8.34 10.01 7.68 9.02 7 8 C4.94074861 7.27617533 4.94074861 7.27617533 3 7 C3 6.34 3 5.68 3 5 C2.01 4.67 1.02 4.34 0 4 C0 2.68 0 1.36 0 0 Z " fill="#1D84CE" transform="translate(165,147)"/>
<path d="M0 0 C4.05281712 1.22527029 7.44360764 2.69880494 11 5 C10.67 5.99 10.34 6.98 10 8 C6.40094092 7.44449305 5.00090201 6.25112752 2.75 3.4375 C2.22921875 2.79683594 1.7084375 2.15617188 1.171875 1.49609375 C0.78515625 1.00238281 0.3984375 0.50867188 0 0 Z " fill="#C9E7F1" transform="translate(173,149)"/>
<path d="M0 0 C4.875 3.625 4.875 3.625 6 7 C6.66 7.66 7.32 8.32 8 9 C7.34 9 6.68 9 6 9 C6 10.65 6 12.3 6 14 C5.67 14 5.34 14 5 14 C5 12.35 5 10.7 5 9 C4.34 9 3.68 9 3 9 C2.67 7.02 2.34 5.04 2 3 C1.34 3 0.68 3 0 3 C0 2.01 0 1.02 0 0 Z " fill="#3379BF" transform="translate(166,181)"/>
<path d="M0 0 C0.66 0.33 1.32 0.66 2 1 C2.05391993 2.79133978 2.09275571 4.58313899 2.125 6.375 C2.14820313 7.37273437 2.17140625 8.37046875 2.1953125 9.3984375 C2 12 2 12 0 14 C-1.17635297 11.64729407 -1.13359359 10.179248 -1.125 7.5625 C-1.12757813 6.78003906 -1.13015625 5.99757812 -1.1328125 5.19140625 C-1 3 -1 3 0 0 Z " fill="#3C7DB2" transform="translate(158,142)"/>
<path d="M0 0 C1.98 0.99 1.98 0.99 4 2 C4 2.66 4 3.32 4 4 C4.66 4 5.32 4 6 4 C7.7143618 5.95927063 9.38405168 7.95880212 11 10 C10.01 10 9.02 10 8 10 C8 9.34 8 8.68 8 8 C6.68 8 5.36 8 4 8 C3.34 6.02 2.68 4.04 2 2 C1.34 2 0.68 2 0 2 C0 1.34 0 0.68 0 0 Z " fill="#1B80C2" transform="translate(178,160)"/>
<path d="M0 0 C3.34998521 1.11666174 3.79340222 1.74694925 5.6875 4.5625 C6.12449219 5.20316406 6.56148437 5.84382812 7.01171875 6.50390625 C7.33785156 6.99761719 7.66398438 7.49132812 8 8 C6.68 8 5.36 8 4 8 C4 7.34 4 6.68 4 6 C3.34 6 2.68 6 2 6 C0 3 0 3 0 0 Z " fill="#309BDC" transform="translate(164,143)"/>
<path d="M0 0 C0.99 0 1.98 0 3 0 C3 0.66 3 1.32 3 2 C3.99 2 4.98 2 6 2 C6.33 3.32 6.66 4.64 7 6 C7.99 6 8.98 6 10 6 C9.67 6.99 9.34 7.98 9 9 C7.87105124 8.06725891 6.74699124 7.12859878 5.625 6.1875 C4.99851563 5.66542969 4.37203125 5.14335937 3.7265625 4.60546875 C2 3 2 3 0 0 Z " fill="#9BB8CD" transform="translate(181,157)"/>
<path d="M0 0 C2.125 0.9375 2.125 0.9375 4 2 C1.69 3.65 -0.62 5.3 -3 7 C-3.33 6.01 -3.66 5.02 -4 4 C-3.34 4 -2.68 4 -2 4 C-2 3.01 -2 2.02 -2 1 C-1.34 0.67 -0.68 0.34 0 0 Z " fill="#547B98" transform="translate(177,182)"/>
<path d="M0 0 C0.99 0 1.98 0 3 0 C3.33 0.99 3.66 1.98 4 3 C6.01508358 3.73323796 6.01508358 3.73323796 8 4 C8 4.66 8 5.32 8 6 C6.35 6.33 4.7 6.66 3 7 C0 3.375 0 3.375 0 0 Z " fill="#6BA7D1" transform="translate(141,198)"/>
<path d="M0 0 C2 1 2 1 3 2 C2.67 2.99 2.34 3.98 2 5 C0.35 5 -1.3 5 -3 5 C-3.66 3.68 -4.32 2.36 -5 1 C-4.01 1 -3.02 1 -2 1 C-1.34 0.67 -0.68 0.34 0 0 Z " fill="#216CAE" transform="translate(164,153)"/>
<path d="M0 0 C5.75 3.625 5.75 3.625 8 7 C4.84859577 6.65930765 3.39218439 6.41923159 1.1875 4.0625 C0 2 0 2 0 0 Z " fill="#5B9CC0" transform="translate(199,176)"/>
<path d="M0 0 C0.66 0 1.32 0 2 0 C2.99 2.31 3.98 4.62 5 7 C3.824375 7.2165625 3.824375 7.2165625 2.625 7.4375 C0.03578982 7.87798925 0.03578982 7.87798925 -2 9 C-1.67 8.443125 -1.34 7.88625 -1 7.3125 C0.1309601 4.69715478 0.15662974 2.8193354 0 0 Z " fill="#8EADC6" transform="translate(165,163)"/>
<path d="M0 0 C1.98 0 3.96 0 6 0 C3.11912454 2.40072955 0.43595166 4.47291037 -3 6 C-3 5.34 -3 4.68 -3 4 C-2.34 4 -1.68 4 -1 4 C-0.67 2.68 -0.34 1.36 0 0 Z " fill="#ABB0AD" transform="translate(226,154)"/>
<path d="M0 0 C1.9375 0.75 1.9375 0.75 4 2 C4.75 4.125 4.75 4.125 5 6 C2 6 2 6 0 5 C-0.33 4.67 -0.66 4.34 -1 4 C-0.5625 1.9375 -0.5625 1.9375 0 0 Z " fill="#2578BE" transform="translate(164,150)"/>
<path d="M0 0 C0.99 0.33 1.98 0.66 3 1 C2.67 3.31 2.34 5.62 2 8 C1.67 7.34 1.34 6.68 1 6 C0.34 6 -0.32 6 -1 6 C-1.625 4.125 -1.625 4.125 -2 2 C-1.34 1.34 -0.68 0.68 0 0 Z " fill="#A2A6A5" transform="translate(262,87)"/>
<path d="M0 0 C0.33 0 0.66 0 1 0 C1.22245975 2.24864725 1.42746557 4.49902623 1.625 6.75 C1.74101562 8.00296875 1.85703125 9.2559375 1.9765625 10.546875 C1.99888599 13.83586903 1.77961002 15.31020776 0 18 C-1.04167441 13.90274731 -0.94409525 10.38504776 -0.5625 6.1875 C-0.46066406 5.02605469 -0.35882813 3.86460937 -0.25390625 2.66796875 C-0.17011719 1.78753906 -0.08632812 0.90710938 0 0 Z " fill="#B9BFBD" transform="translate(196,147)"/>
</svg>
