<?xml version="1.0" encoding="UTF-8"?>
<svg version="1.1" xmlns="http://www.w3.org/2000/svg" width="400" height="300">
<path d="M0 0 C132 0 264 0 400 0 C400 99 400 198 400 300 C268 300 136 300 0 300 C0 201 0 102 0 0 Z " fill="#FEFEFE" transform="translate(0,0)"/>
<path d="M0 0 C0.99 0 1.98 0 3 0 C4.69196504 3.38393008 4.11986549 7.22477791 4.09765625 10.9453125 C4.0962413 11.8303244 4.09482635 12.7153363 4.09336853 13.62716675 C4.0877614 16.45981191 4.07520771 19.29237864 4.0625 22.125 C4.05748592 24.04296761 4.05292285 25.96093646 4.04882812 27.87890625 C4.03778966 32.58596782 4.02052025 37.2929706 4 42 C3.34 42 2.68 42 2 42 C1.7215625 42.82757813 1.7215625 42.82757813 1.4375 43.671875 C-0.68965128 47.11693523 -3.70446908 48.973569 -7 51.25 C-7.96292969 51.93835938 -7.96292969 51.93835938 -8.9453125 52.640625 C-13.72442336 56 -13.72442336 56 -16 56 C-16 56.66 -16 57.32 -16 58 C-17.43359375 59.23339844 -17.43359375 59.23339844 -19.4375 60.609375 C-20.16839844 61.11726563 -20.89929688 61.62515625 -21.65234375 62.1484375 C-22.42707031 62.67695313 -23.20179688 63.20546875 -24 63.75 C-25.50084007 64.7852415 -27.00084303 65.82169766 -28.5 66.859375 C-29.25345703 67.38031738 -30.00691406 67.90125977 -30.78320312 68.43798828 C-33.54928908 70.38704312 -36.24106673 72.42502478 -38.9375 74.46875 C-41.16669859 76.12376107 -43.43525495 77.70989222 -45.71875 79.2890625 C-46.50507813 79.83820313 -47.29140625 80.38734375 -48.1015625 80.953125 C-49.72524402 82.08494209 -51.35570057 83.20709098 -52.9921875 84.3203125 C-53.76820313 84.866875 -54.54421875 85.4134375 -55.34375 85.9765625 C-56.04693359 86.46205566 -56.75011719 86.94754883 -57.47460938 87.44775391 C-59.46727325 89.11278312 -59.46727325 89.11278312 -59 93 C-57.44068202 94.8179372 -57.44068202 94.8179372 -55.4375 96.4375 C-53.4921875 98.25 -53.4921875 98.25 -52 100 C-52.0625 102.9375 -52.0625 102.9375 -53 105 C-58.07055534 106.69018511 -63.67854486 106.91778459 -68.6875 104.9375 C-72.00237625 102.16017125 -75.02190061 99.13258293 -78 96 C-84.18787048 99.16962805 -84.18787048 99.16962805 -89 104 C-89.36191831 105.61471248 -89.6686281 107.2422143 -89.9375 108.875 C-90.79748987 114.03493922 -92.21903894 116.39908471 -96 120 C-100.89740671 123.05955127 -106.43615887 122.84366741 -112 122 C-116.32410001 119.70770602 -119.17779343 116.53864413 -121 112 C-121.70077817 107.06195847 -121.55558401 103.11116802 -119.3125 98.625 C-115.41101721 94.19628981 -113.02661556 92.03678918 -107.125 91.3125 C-102.49170822 90.58421312 -100.71788116 89.07883501 -97.875 85.375 C-96.88928248 83.93503477 -95.92102445 82.48217842 -95 81 C-96.43024761 77.79452042 -98.20433073 75.4645554 -100.5625 72.875 C-104.75935175 68.25061033 -105.27025633 65.68678155 -105.234375 59.48828125 C-104.94182835 56.38241098 -103.93937784 54.4242223 -102 52 C-98.7279406 53.42111983 -96.68034504 55.13535987 -94.25 57.73046875 C-93.21359375 58.81038086 -93.21359375 58.81038086 -92.15625 59.91210938 C-90.71288844 61.43522189 -89.27541498 62.96393485 -87.84375 64.49804688 C-87.1528125 65.21412109 -86.461875 65.93019531 -85.75 66.66796875 C-85.12609375 67.33078857 -84.5021875 67.9936084 -83.859375 68.67651367 C-82.08778757 70.24164082 -82.08778757 70.24164082 -79.86547852 69.80566406 C-77.51992205 68.79266362 -76.50201555 67.56925195 -74.9375 65.5625 C-72.98931914 63.08722511 -71.69367114 61.79578076 -69 60 C-67.93753473 58.03247172 -66.92862192 56.03412421 -66 54 C-65.34 54 -64.68 54 -64 54 C-64 53.34 -64 52.68 -64 52 C-62.79260954 50.889318 -61.53265169 49.83534451 -60.25 48.8125 C-57.53374321 46.51961773 -55.54054158 44.61533574 -53.9375 41.4375 C-51.87091275 37.77097423 -49.83153512 35.98429603 -46.6015625 33.4140625 C-44.5171793 31.57370465 -43.39155088 29.3855158 -42 27 C-39.875 25.8125 -39.875 25.8125 -38 25 C-37.67 24.34 -37.34 23.68 -37 23 C-36.34 23 -35.68 23 -35 23 C-33.79371992 20.66785852 -32.8345262 18.50357861 -32 16 C-31.34 16 -30.68 16 -30 16 C-29.67 14.68 -29.34 13.36 -29 12 C-28.505 12.495 -28.505 12.495 -28 13 C-25.14122091 13.23701239 -22.30116703 13.42219182 -19.4375 13.5625 C-18.22803711 13.62727539 -18.22803711 13.62727539 -16.99414062 13.69335938 C-14.99631195 13.79975262 -12.9981793 13.90040888 -11 14 C-10.71898437 13.39027344 -10.43796875 12.78054687 -10.1484375 12.15234375 C-8.58777889 9.22743594 -6.36574528 7.30941801 -4 5 C-2.948125 3.6078125 -2.948125 3.6078125 -1.875 2.1875 C-1.25625 1.465625 -0.6375 0.74375 0 0 Z " fill="#99A19C" transform="translate(262,86)"/>
<path d="M0 0 C3.28009039 1.43301374 5.42976886 3.19468883 7.93359375 5.73828125 C8.66513672 6.47626953 9.39667969 7.21425781 10.15039062 7.97460938 C10.90513672 8.74611328 11.65988281 9.51761719 12.4375 10.3125 C13.18837891 11.07240234 13.93925781 11.83230469 14.71289062 12.61523438 C16.12268418 14.04238687 17.5304044 15.47159282 18.93530273 16.90356445 C22.65992258 20.68543871 26.42192394 24.42145464 30.25131226 28.09741211 C32.40721551 30.17252897 34.54677322 32.26419323 36.68603516 34.35644531 C37.8175419 35.45752993 38.95433669 36.5532049 40.09619141 37.64355469 C41.7528393 39.2275967 43.3894806 40.83010408 45.0234375 42.4375 C45.53788422 42.920979 46.05233093 43.40445801 46.58236694 43.90258789 C47.98974609 45.30859375 47.98974609 45.30859375 50 48 C49.81103516 50.84765625 49.81103516 50.84765625 49 53 C43.92944466 54.69018511 38.32145514 54.91778459 33.3125 52.9375 C29.99762375 50.16017125 26.97809939 47.13258293 24 44 C17.81212952 47.16962805 17.81212952 47.16962805 13 52 C12.63808169 53.61471248 12.3313719 55.2422143 12.0625 56.875 C11.20251013 62.03493922 9.78096106 64.39908471 6 68 C1.10259329 71.05955127 -4.43615887 70.84366741 -10 70 C-14.32410001 67.70770602 -17.17779343 64.53864413 -19 60 C-19.70077817 55.06195847 -19.55558401 51.11116802 -17.3125 46.625 C-13.41101721 42.19628981 -11.02661556 40.03678918 -5.125 39.3125 C-0.49170822 38.58421312 1.28211884 37.07883501 4.125 33.375 C5.11071752 31.93503477 6.07897555 30.48217842 7 29 C5.56975239 25.79452042 3.79566927 23.4645554 1.4375 20.875 C-2.75935175 16.25061033 -3.27025633 13.68678155 -3.234375 7.48828125 C-2.94182835 4.38241098 -1.93937784 2.4242223 0 0 Z " fill="#1B6AB6" transform="translate(160,138)"/>
<path d="M0 0 C0.66 0.33 1.32 0.66 2 1 C4.71426141 1.23240505 7.40633767 1.41908802 10.125 1.5625 C12.72375 1.706875 15.3225 1.85125 18 2 C18 7.94 18 13.88 18 20 C17.34 20 16.68 20 16 20 C16 20.66 16 21.32 16 22 C13.33761392 23.93628079 10.763179 25.66080934 7.75 27 C5.50201842 28.2845609 5.10647266 29.71328984 4 32 C3.01 32.33 2.02 32.66 1 33 C0.67 33.99 0.34 34.98 0 36 C-0.66 36 -1.32 36 -2 36 C-2 36.66 -2 37.32 -2 38 C-3.71951974 39.53851766 -5.50187497 41.00731759 -7.3125 42.4375 C-11.16467002 45.45235569 -11.16467002 45.45235569 -14.73046875 48.78515625 C-16 50 -16 50 -18 50 C-18.2578125 50.59296875 -18.515625 51.1859375 -18.78125 51.796875 C-20.09769895 54.17660965 -21.42580782 55.50978792 -23.5 57.25 C-24.41265625 58.03117187 -24.41265625 58.03117187 -25.34375 58.828125 C-27 60 -27 60 -29 60 C-29 60.66 -29 61.32 -29 62 C-30.375 63.625 -30.375 63.625 -32 65 C-32.66 65 -33.32 65 -34 65 C-34 65.66 -34 66.32 -34 67 C-35.75 68.6875 -35.75 68.6875 -38 70 C-41.56948277 69.61964528 -43.29527733 68.08540941 -45.75 65.5625 C-46.67039063 64.63630859 -46.67039063 64.63630859 -47.609375 63.69140625 C-49 62 -49 62 -49 60 C-49.66 59.67 -50.32 59.34 -51 59 C-50.55269531 58.62488281 -50.10539063 58.24976563 -49.64453125 57.86328125 C-41.51938658 51.0024817 -41.51938658 51.0024817 -36 42 C-35.34 42 -34.68 42 -34 42 C-34 41.34 -34 40.68 -34 40 C-32.79260954 38.889318 -31.53265169 37.83534451 -30.25 36.8125 C-27.53374321 34.51961773 -25.54054158 32.61533574 -23.9375 29.4375 C-21.87091275 25.77097423 -19.83153512 23.98429603 -16.6015625 21.4140625 C-14.5171793 19.57370465 -13.39155088 17.3855158 -12 15 C-9.875 13.8125 -9.875 13.8125 -8 13 C-7.67 12.34 -7.34 11.68 -7 11 C-6.34 11 -5.68 11 -5 11 C-3.79371992 8.66785852 -2.8345262 6.50357861 -2 4 C-1.34 4 -0.68 4 0 4 C0 2.68 0 1.36 0 0 Z " fill="#B6BCBA" transform="translate(232,98)"/>
<path d="M0 0 C0.87527344 -0.00257813 1.75054687 -0.00515625 2.65234375 -0.0078125 C5.55604459 0.15219695 7.45381788 0.54884288 9.59765625 2.578125 C16.25026333 10.40472156 16.25026333 10.40472156 15.90234375 15.4453125 C14.98362733 21.421429 13.44190966 24.95413365 9.0625 29.125 C4.16509329 32.18455127 -1.37365887 31.96866741 -6.9375 31.125 C-11.26160001 28.83270602 -14.11529343 25.66364413 -15.9375 21.125 C-16.63827817 16.18695847 -16.49308401 12.23616802 -14.25 7.75 C-9.90179306 2.81419752 -6.60613165 -0.01940127 0 0 Z " fill="#238BD2" transform="translate(156.9375,176.875)"/>
<path d="M0 0 C0.22437536 3.9827585 0.3866231 7.96302306 0.49438477 11.95068359 C0.5613211 13.96453152 0.67575397 15.97662057 0.79101562 17.98828125 C1.00855463 27.60833937 1.00855463 27.60833937 -1.97314453 31.72265625 C-7.77985147 37 -7.77985147 37 -11 37 C-11 37.66 -11 38.32 -11 39 C-11.66 39 -12.32 39 -13 39 C-13 31.41 -13 23.82 -13 16 C-13.99 15.67 -14.98 15.34 -16 15 C-15.29875 14.34 -14.5975 13.68 -13.875 13 C-11.03170192 10.1889206 -8.79424464 7.05371176 -6.52734375 3.76953125 C-4.82910949 1.80201176 -2.75054429 0 0 0 Z " fill="#C1C6C4" transform="translate(225,111)"/>
<path d="M0 0 C3.28009039 1.43301374 5.42976886 3.19468883 7.93359375 5.73828125 C8.66513672 6.47626953 9.39667969 7.21425781 10.15039062 7.97460938 C10.90513672 8.74611328 11.65988281 9.51761719 12.4375 10.3125 C13.18837891 11.07240234 13.93925781 11.83230469 14.71289062 12.61523438 C16.16951216 14.08979145 17.62425098 15.56621123 19.0769043 17.04467773 C21.37082805 19.37704226 23.68279243 21.6907828 26 24 C29 27 32 30 35 33 C34.01 33.495 34.01 33.495 33 34 C28.44362766 31.78338643 23.91413457 28.60176762 22.1875 23.6875 C22.125625 23.130625 22.06375 22.57375 22 22 C18.46319951 21.91961817 15.39220461 21.98233862 12 23 C10.66666667 23.33333333 9.33333333 23.66666667 8 24 C8.33 25.65 8.66 27.3 9 29 C-3.12323849 17.23332735 -3.12323849 17.23332735 -3.25 10.1875 C-3.22561502 5.97499477 -2.7039031 3.37987887 0 0 Z " fill="#1F74C2" transform="translate(160,138)"/>
<path d="M0 0 C3.09244792 0.03255208 6.18489583 0.06510417 9.27734375 0.09765625 C9.27734375 6.03765625 9.27734375 11.97765625 9.27734375 18.09765625 C8.61734375 18.09765625 7.95734375 18.09765625 7.27734375 18.09765625 C7.27734375 18.75765625 7.27734375 19.41765625 7.27734375 20.09765625 C4.59537246 22.04818082 1.94887838 23.77096373 -1.03515625 25.22265625 C-2.91182085 25.98584236 -2.91182085 25.98584236 -3.72265625 28.09765625 C-3.75151963 23.61850297 -3.76940812 19.13937334 -3.78515625 14.66015625 C-3.79353516 13.38076172 -3.80191406 12.10136719 -3.81054688 10.78320312 C-3.81376953 9.56826172 -3.81699219 8.35332031 -3.8203125 7.1015625 C-3.82554932 5.97564697 -3.83078613 4.84973145 -3.83618164 3.68969727 C-3.67988282 0.12104223 -3.58410092 0.12855455 0 0 Z " fill="#B1B6B3" transform="translate(240.72265625,99.90234375)"/>
<path d="M0 0 C1.1055189 0.93590504 2.20935453 1.87379858 3.3125 2.8125 C4.23482422 3.59560547 4.23482422 3.59560547 5.17578125 4.39453125 C7 6 7 6 8.54296875 7.63671875 C11.75802651 10.64490952 15.54683549 10.10349668 19.6875 10.0625 C20.86699219 10.05347656 22.04648438 10.04445312 23.26171875 10.03515625 C24.61716797 10.01775391 24.61716797 10.01775391 26 10 C25.67 11.98 25.34 13.96 25 16 C22.10765685 16.82638376 20.11257569 17 17 17 C15.97895449 16.02149805 14.9793879 15.02019573 14 14 C12.67203709 13.64587656 11.33783393 13.31478446 10 13 C9.236875 12.505 8.47375 12.01 7.6875 11.5 C4.41289181 9.67231171 1.72142219 9.2756609 -2 9 C-5.07509866 9.72676872 -5.07509866 9.72676872 -6.625 12 C-8.19979133 15.43590835 -8.48403196 18.27269747 -8.69140625 22.01171875 C-9 24 -9 24 -11 26 C-11 25.34 -11 24.68 -11 24 C-11.66 24 -12.32 24 -13 24 C-13 24.66 -13 25.32 -13 26 C-17.4802757 28.5375967 -21.45498592 28.40325782 -26.5 28.4375 C-27.78197266 28.48680664 -27.78197266 28.48680664 -29.08984375 28.53710938 C-35.39327134 28.59119495 -35.39327134 28.59119495 -38.59375 25.47265625 C-39.0578125 24.65667969 -39.521875 23.84070313 -40 23 C-39.67 22.34 -39.34 21.68 -39 21 C-38.2575 21.825 -37.515 22.65 -36.75 23.5 C-32.78761857 26.81141876 -28.83676656 26.64671358 -23.84765625 26.41796875 C-19.95682708 25.84688683 -17.81482737 24.74265231 -15 22 C-12.85664252 18.67410046 -12.02194362 16.59247784 -11.875 12.625 C-10.52783238 7.04387699 -6.47040124 4.36305414 -2 1 C-1.34 0.67 -0.68 0.34 0 0 Z " fill="#D6E7F7" transform="translate(183,181)"/>
<path d="M0 0 C0.66 0 1.32 0 2 0 C2 0.66 2 1.32 2 2 C3.65 2.33 5.3 2.66 7 3 C7 3.66 7 4.32 7 5 C7.99 5 8.98 5 10 5 C10 5.99 10 6.98 10 8 C10.66 8 11.32 8 12 8 C13.33333333 9.33333333 14.66666667 10.66666667 16 12 C18.13309192 13.23512079 18.13309192 13.23512079 20 14 C20 14.66 20 15.32 20 16 C20.99 16.33 21.98 16.66 23 17 C22.67 17.99 22.34 18.98 22 20 C20.02 18.35 18.04 16.7 16 15 C15.38511719 15.51691406 14.77023438 16.03382813 14.13671875 16.56640625 C13.32847656 17.22511719 12.52023438 17.88382813 11.6875 18.5625 C10.88699219 19.22378906 10.08648437 19.88507813 9.26171875 20.56640625 C8.51535156 21.03949219 7.76898438 21.51257813 7 22 C3.20596616 20.73532205 2.93315707 19.38302487 1 16 C0.443125 15.443125 -0.11375 14.88625 -0.6875 14.3125 C-1.120625 13.879375 -1.55375 13.44625 -2 13 C-2 12.34 -2 11.68 -2 11 C-3.65 10.67 -5.3 10.34 -7 10 C-4.94196512 6.39843896 -2.75464117 3.11007874 0 0 Z " fill="#225C8F" transform="translate(167,167)"/>
<path d="M0 0 C0 0.99 0 1.98 0 3 C0.66 3 1.32 3 2 3 C3 6 3 6 2.328125 7.9375 C1.97234375 8.618125 1.6165625 9.29875 1.25 10 C0.90453125 10.680625 0.5590625 11.36125 0.203125 12.0625 C-1.0488793 14.07871472 -2.13648009 15.5264137 -4 17 C-12.78867403 17.69751381 -12.78867403 17.69751381 -16 15 C-17.09283638 12.11178956 -17.10616766 10.43528741 -16.375 7.4375 C-12.39159755 0.37601383 -7.29470328 -0.1176565 0 0 Z " fill="#27A2DE" transform="translate(160,177)"/>
<path d="M0 0 C0.66 0.33 1.32 0.66 2 1 C2.05834353 4.22909006 2.09371115 7.45804338 2.125 10.6875 C2.14175781 11.59951172 2.15851563 12.51152344 2.17578125 13.45117188 C2.23818946 22.03230051 2.23818946 22.03230051 0 26 C-0.66 26.66 -1.32 27.32 -2 28 C-5.56314374 27.69816344 -7.31830885 26.06173813 -9.75 23.5625 C-10.36359375 22.94503906 -10.9771875 22.32757813 -11.609375 21.69140625 C-13 20 -13 20 -13 18 C-13.66 17.67 -14.32 17.34 -15 17 C-14.55269531 16.62488281 -14.10539063 16.24976563 -13.64453125 15.86328125 C-5.51938658 9.0024817 -5.51938658 9.0024817 0 0 Z " fill="#BFC5C5" transform="translate(196,140)"/>
<path d="M0 0 C0.33 0 0.66 0 1 0 C1.3125 2.6875 1.3125 2.6875 1 6 C-1.3125 8.6875 -1.3125 8.6875 -4 11 C-4.515625 11.5775 -5.03125 12.155 -5.5625 12.75 C-7.33385144 14.2903056 -8.72830532 14.4654836 -11 15 C-14.19016008 16.55617565 -15.72093062 17.51162858 -17.5 20.625 C-19 23 -19 23 -21.6875 23.8125 C-22.450625 23.874375 -23.21375 23.93625 -24 24 C-24 24.66 -24 25.32 -24 26 C-25.93108963 27.03290841 -27.870118 28.05098672 -29.8125 29.0625 C-30.89144531 29.63097656 -31.97039062 30.19945312 -33.08203125 30.78515625 C-36 32 -36 32 -39 31 C-35.24634493 27.03185035 -31.2707518 23.83203497 -26.8125 20.6875 C-25.86987305 20.0059082 -25.86987305 20.0059082 -24.90820312 19.31054688 C-20.25352444 16 -20.25352444 16 -18 16 C-18 15.34 -18 14.68 -18 14 C-16.33861059 12.82638506 -14.61820517 11.73574737 -12.875 10.6875 C-5.39826301 6.4186488 -5.39826301 6.4186488 0 0 Z " fill="#E4E6E4" transform="translate(264,128)"/>
<path d="M0 0 C2 2 2 2 2.22705078 4.33837891 C2.21657715 5.29147949 2.20610352 6.24458008 2.1953125 7.2265625 C2.18886719 8.2578125 2.18242187 9.2890625 2.17578125 10.3515625 C2.15902344 11.43179688 2.14226562 12.51203125 2.125 13.625 C2.11597656 14.71296875 2.10695312 15.8009375 2.09765625 16.921875 C2.07403409 19.61480152 2.04109556 22.30729255 2 25 C2.66 25.33 3.32 25.66 4 26 C3.01 26.33 2.02 26.66 1 27 C1 27.66 1 28.32 1 29 C-1.5 30.625 -1.5 30.625 -4 32 C-5.11984119 28.64047644 -5.028066 26.33089543 -4.87890625 22.80078125 C-4.83056641 21.59228516 -4.78222656 20.38378906 -4.73242188 19.13867188 C-4.67634766 17.87603516 -4.62027344 16.61339844 -4.5625 15.3125 C-4.51029297 14.03826172 -4.45808594 12.76402344 -4.40429688 11.45117188 C-4.27449555 8.30053961 -4.1395244 5.15021423 -4 2 C-2.68 1.34 -1.36 0.68 0 0 Z " fill="#B2B8B6" transform="translate(229,107)"/>
<path d="M0 0 C3.28009039 1.43301374 5.42976886 3.19468883 7.93359375 5.73828125 C8.66513672 6.47626953 9.39667969 7.21425781 10.15039062 7.97460938 C10.90513672 8.74611328 11.65988281 9.51761719 12.4375 10.3125 C13.18837891 11.07240234 13.93925781 11.83230469 14.71289062 12.61523438 C16.16951216 14.08979145 17.62425098 15.56621123 19.0769043 17.04467773 C21.37082805 19.37704226 23.68279243 21.6907828 26 24 C29 27 32 30 35 33 C34.01 33.495 34.01 33.495 33 34 C28.44362766 31.78338643 23.91413457 28.60176762 22.1875 23.6875 C22.125625 23.130625 22.06375 22.57375 22 22 C21.29875 21.979375 20.5975 21.95875 19.875 21.9375 C16.12062758 20.71324812 14.76775983 18.67747783 12.4296875 15.59375 C10.9865905 13.72051898 10.9865905 13.72051898 8 13 C8 12.34 8 11.68 8 11 C7.34 11 6.68 11 6 11 C4 8 4 8 4 5 C2.68 4.34 1.36 3.68 0 3 C0 2.01 0 1.02 0 0 Z " fill="#4599C5" transform="translate(160,138)"/>
<path d="M0 0 C2.3125 0.1875 2.3125 0.1875 5 1 C8 5.03448276 8 5.03448276 8 8 C9.94929381 8.98720644 11.89654885 9.95386007 13.89233398 10.84399414 C19.16758988 13.2628559 22.99959672 16.32762674 27.0625 20.4375 C27.65482422 20.99759766 28.24714844 21.55769531 28.85742188 22.13476562 C30.42447783 23.69817302 31.80277873 25.13772028 33 27 C32.87109375 29.91015625 32.87109375 29.91015625 32 32 C31.34 30.68 30.68 29.36 30 28 C29.01 28 28.02 28 27 28 C27 27.34 27 26.68 27 26 C26.38125 25.731875 25.7625 25.46375 25.125 25.1875 C23 24 23 24 21 21 C20.01 20.67 19.02 20.34 18 20 C16.15866895 18.01768537 14.50389134 15.92657528 12.81640625 13.8125 C10.8157745 11.81617068 9.70335314 11.53497936 7 11 C5.27898465 8.41847698 5 7.15081975 5 4 C4.360625 3.896875 3.72125 3.79375 3.0625 3.6875 C2.381875 3.460625 1.70125 3.23375 1 3 C0.67 2.01 0.34 1.02 0 0 Z " fill="#298BC4" transform="translate(177,159)"/>
<path d="M0 0 C-0.24165926 4.18876056 -0.41418886 6.36669066 -3.3125 9.5 C-6 11 -6 11 -8.3125 10.75 C-8.869375 10.5025 -9.42625 10.255 -10 10 C-10.061875 10.598125 -10.12375 11.19625 -10.1875 11.8125 C-11.31683157 14.85300807 -13.27774641 15.36664785 -16 17 C-16.87822312 19.08533633 -16.87822312 19.08533633 -17 21 C-18.65 19.68 -20.3 18.36 -22 17 C-20.57508111 13.5663931 -18.94242568 11.9186251 -15.9375 9.765625 C-15.14085937 9.19199219 -14.34421875 8.61835938 -13.5234375 8.02734375 C-12.69070312 7.44082031 -11.85796875 6.85429687 -11 6.25 C-10.16726562 5.64800781 -9.33453125 5.04601562 -8.4765625 4.42578125 C-2.27444728 0 -2.27444728 0 0 0 Z " fill="#E3E5E5" transform="translate(223,161)"/>
<path d="M0 0 C0.99 0.66 1.98 1.32 3 2 C2.67 2.99 2.34 3.98 2 5 C2 4.34 2 3.68 2 3 C1.401875 3.474375 0.80375 3.94875 0.1875 4.4375 C-2 6 -2 6 -5 7 C-7.28316568 8.02711506 -7.28316568 8.02711506 -9 10 C-9.40989496 13.36319062 -9.40989496 13.36319062 -9.125 17.0625 C-9.01532757 19.37277365 -8.95988181 21.68747262 -9 24 C-9.66 24.66 -10.32 25.32 -11 26 C-11 25.34 -11 24.68 -11 24 C-11.66 24 -12.32 24 -13 24 C-13 24.66 -13 25.32 -13 26 C-17.4802757 28.5375967 -21.45498592 28.40325782 -26.5 28.4375 C-27.78197266 28.48680664 -27.78197266 28.48680664 -29.08984375 28.53710938 C-35.39327134 28.59119495 -35.39327134 28.59119495 -38.59375 25.47265625 C-39.0578125 24.65667969 -39.521875 23.84070313 -40 23 C-39.67 22.34 -39.34 21.68 -39 21 C-38.2575 21.825 -37.515 22.65 -36.75 23.5 C-32.78761857 26.81141876 -28.83676656 26.64671358 -23.84765625 26.41796875 C-19.95682708 25.84688683 -17.81482737 24.74265231 -15 22 C-12.85664252 18.67410046 -12.02194362 16.59247784 -11.875 12.625 C-10.52783238 7.04387699 -6.47040124 4.36305414 -2 1 C-1.34 0.67 -0.68 0.34 0 0 Z " fill="#D8E9F3" transform="translate(183,181)"/>
<path d="M0 0 C1.65 0.33 3.3 0.66 5 1 C5.66 2.98 6.32 4.96 7 7 C7.66 7 8.32 7 9 7 C9.33 7.66 9.66 8.32 10 9 C10.99 9 11.98 9 13 9 C15.1875 12 15.1875 12 17 15 C16.2575 14.4740625 16.2575 14.4740625 15.5 13.9375 C11.73746058 12.52654772 8.93686314 13.29007386 5 14 C4.67 14.33 4.34 14.66 4 15 C3.34 15 2.68 15 2 15 C-0.20803531 12.54662743 -1.00920955 10.75403187 -0.96875 7.44140625 C-0.71383823 4.94539519 -0.39917109 2.47678445 0 0 Z " fill="#217CC7" transform="translate(159,142)"/>
<path d="M0 0 C1.32 0.33 2.64 0.66 4 1 C4.33 2.32 4.66 3.64 5 5 C5.66 4.67 6.32 4.34 7 4 C7.33 3.01 7.66 2.02 8 1 C8.66 1 9.32 1 10 1 C10.165 1.763125 10.33 2.52625 10.5 3.3125 C12.69479908 7.24484835 15.8222367 7.80496538 20 9 C20 9.66 20 10.32 20 11 C15.55890476 13.22054762 9.66575671 12.53162448 5.0625 11.0625 C1.9372278 7.9372278 1.08566027 4.21024347 0 0 Z " fill="#1A5FA8" transform="translate(188,180)"/>
<path d="M0 0 C0.33 0.99 0.66 1.98 1 3 C0.67 3.66 0.34 4.32 0 5 C-0.25 8.5 -0.25 8.5 0 12 C0.66 12.66 1.32 13.32 2 14 C2.103125 14.66 2.20625 15.32 2.3125 16 C2.539375 16.66 2.76625 17.32 3 18 C5.49034386 19.29660434 5.49034386 19.29660434 8 20 C8 20.99 8 21.98 8 23 C10.31 23 12.62 23 15 23 C14.67 21.68 14.34 20.36 14 19 C17.98196457 17.94595055 20.98195309 18.15901344 25 19 C21.01399235 23.11887457 19.06193821 24.19944296 13.3125 24.4375 C7.8805897 24.4048955 5.15036806 23.49140734 1.3046875 19.703125 C-1.41194589 16.15686105 -2.27728518 13.47477022 -2.25 9 C-2.25515625 8.154375 -2.2603125 7.30875 -2.265625 6.4375 C-1.98531155 3.86521189 -1.2948187 2.2196892 0 0 Z " fill="#2876BE" transform="translate(143,184)"/>
<path d="M0 0 C0.99 0.99 1.98 1.98 3 3 C4.65 2.01 6.3 1.02 8 0 C6.43638038 3.83797544 3.97489917 6.1667627 1 9 C0.319375 9.78375 -0.36125 10.5675 -1.0625 11.375 C-1.701875 11.91125 -2.34125 12.4475 -3 13 C-6.62310522 12.66244361 -8.31154208 11.01663818 -10.75 8.4375 C-11.36359375 7.79683594 -11.9771875 7.15617188 -12.609375 6.49609375 C-13.29773438 5.75552734 -13.29773438 5.75552734 -14 5 C-13.34 3.68 -12.68 2.36 -12 1 C-11.34 1 -10.68 1 -10 1 C-9.9175 1.78375 -9.835 2.5675 -9.75 3.375 C-9.5025 4.24125 -9.255 5.1075 -9 6 C-7.68 6.66 -6.36 7.32 -5 8 C-3.35 5.36 -1.7 2.72 0 0 Z " fill="#E5E4E1" transform="translate(186,144)"/>
<path d="M0 0 C4.29 0 8.58 0 13 0 C13.33 0.99 13.66 1.98 14 3 C12.74057614 4.19959375 11.46704714 5.38439443 10.1875 6.5625 C9.12595703 7.55443359 9.12595703 7.55443359 8.04296875 8.56640625 C7.36878906 9.03949219 6.69460937 9.51257813 6 10 C3 9 3 9 1.3125 6.6875 C0 4 0 4 0 0 Z " fill="#23527C" transform="translate(168,179)"/>
<path d="M0 0 C0.66 0.33 1.32 0.66 2 1 C1.96744792 2.98567708 1.93489583 4.97135417 1.90234375 6.95703125 C1.91736783 9.20305461 1.91736783 9.20305461 3 12 C2.0625 14.1875 2.0625 14.1875 1 16 C-0.1725131 15.04882866 -1.33787015 14.08882991 -2.5 13.125 C-3.1496875 12.59132812 -3.799375 12.05765625 -4.46875 11.5078125 C-5.22671875 10.76144531 -5.22671875 10.76144531 -6 10 C-6 9.34 -6 8.68 -6 8 C-6.66 7.67 -7.32 7.34 -8 7 C-5.36 4.69 -2.72 2.38 0 0 Z " fill="#B2BAB4" transform="translate(189,150)"/>
<path d="M0 0 C0 0.66 0 1.32 0 2 C0.66 2 1.32 2 2 2 C2.33 3.32 2.66 4.64 3 6 C-0.24629847 7.08209949 -0.87436498 6.78140875 -4 6 C-8.29602164 7.43200721 -9.12908491 10.2675345 -11.08984375 14.16796875 C-11.39019531 14.77253906 -11.69054687 15.37710938 -12 16 C-12.91161867 8.25124131 -12.91161867 8.25124131 -10.8046875 5.359375 C-7.71957624 2.7858651 -4.12944659 0 0 0 Z " fill="#EDF0F0" transform="translate(185,184)"/>
<path d="M0 0 C0 0.99 0 1.98 0 3 C-1.093125 3.12375 -2.18625 3.2475 -3.3125 3.375 C-7.07381802 3.75464801 -7.07381802 3.75464801 -10 6 C-11.19232613 8.05003955 -11.19232613 8.05003955 -12 10 C-12.99 9.67 -13.98 9.34 -15 9 C-15 9.66 -15 10.32 -15 11 C-15.66 10.67 -16.32 10.34 -17 10 C-15.64717831 5.57258356 -13.76701112 3.63690779 -10 1 C-6.78548731 -0.60725635 -3.56387464 -0.05748185 0 0 Z " fill="#2FA5D5" transform="translate(160,177)"/>
<path d="M0 0 C2 1 2 1 3.25 2.9375 C4.3582527 7.4628652 3.52073073 11.62326278 2 16 C1.02984748 17.02898206 0.03291926 18.03404048 -1 19 C-1.02683987 16.02077407 -1.04676037 13.04178705 -1.0625 10.0625 C-1.07087891 9.21236328 -1.07925781 8.36222656 -1.08789062 7.48632812 C-1.09111328 6.67744141 -1.09433594 5.86855469 -1.09765625 5.03515625 C-1.10289307 4.2862915 -1.10812988 3.53742676 -1.11352539 2.76586914 C-1 1 -1 1 0 0 Z " fill="#3077BD" transform="translate(169,184)"/>
<path d="M0 0 C0.66 0 1.32 0 2 0 C2 0.99 2 1.98 2 3 C2.66 3 3.32 3 4 3 C5.33333333 4.33333333 6.66666667 5.66666667 8 7 C10.13309192 8.23512079 10.13309192 8.23512079 12 9 C12 9.66 12 10.32 12 11 C12.99 11.33 13.98 11.66 15 12 C14.67 12.99 14.34 13.98 14 15 C12.50260417 13.73046875 11.00520833 12.4609375 9.5078125 11.19140625 C7.99405921 9.9121848 7.99405921 9.9121848 6 9 C6 8.34 6 7.68 6 7 C5.01 7.33 4.02 7.66 3 8 C0.3125 7.5625 0.3125 7.5625 -2 7 C-2 6.01 -2 5.02 -2 4 C-1.34 4 -0.68 4 0 4 C0 2.68 0 1.36 0 0 Z " fill="#265D96" transform="translate(175,172)"/>
<path d="M0 0 C2.3125 0.1875 2.3125 0.1875 5 1 C8 5.03448276 8 5.03448276 8 8 C8.5775 8.2475 9.155 8.495 9.75 8.75 C12.32939979 10.18299988 14.06121592 11.78424676 16 14 C16 14.66 16 15.32 16 16 C17.32 16.66 18.64 17.32 20 18 C20 18.66 20 19.32 20 20 C19.34 20 18.68 20 18 20 C16.17641627 18.02819395 14.52997206 15.94381973 12.8515625 13.84765625 C10.82717853 11.82754313 9.73346738 11.53631322 7 11 C5.27898465 8.41847698 5 7.15081975 5 4 C4.360625 3.896875 3.72125 3.79375 3.0625 3.6875 C2.381875 3.460625 1.70125 3.23375 1 3 C0.67 2.01 0.34 1.02 0 0 Z " fill="#1A82C5" transform="translate(177,159)"/>
<path d="M0 0 C1.32 0.33 2.64 0.66 4 1 C4.33 2.32 4.66 3.64 5 5 C5.66 4.67 6.32 4.34 7 4 C7.33 3.01 7.66 2.02 8 1 C8.66 1 9.32 1 10 1 C11.125 3.25 11.125 3.25 12 6 C11.125 8.3125 11.125 8.3125 10 10 C9.34 10 8.68 10 8 10 C7.67 9.34 7.34 8.68 7 8 C4.47266765 7.34444881 4.47266765 7.34444881 2 7 C1.34 4.69 0.68 2.38 0 0 Z " fill="#155EAA" transform="translate(188,180)"/>
<path d="M0 0 C0.66 0 1.32 0 2 0 C2 0.66 2 1.32 2 2 C3.65 2.33 5.3 2.66 7 3 C7.33 4.32 7.66 5.64 8 7 C4.04 7 0.08 7 -4 7 C-2 2 -2 2 0 0 Z " fill="#1D4E7D" transform="translate(167,167)"/>
<path d="M0 0 C0.66 0.33 1.32 0.66 2 1 C2 1.66 2 2.32 2 3 C3.32 3.66 4.64 4.32 6 5 C4.02 5.99 2.04 6.98 0 8 C-0.33 7.01 -0.66 6.02 -1 5 C-1.66 6.32 -2.32 7.64 -3 9 C-3.99 8.67 -4.98 8.34 -6 8 C-5.8125 5.6875 -5.8125 5.6875 -5 3 C-2.5625 1.125 -2.5625 1.125 0 0 Z " fill="#1972C0" transform="translate(176,159)"/>
<path d="M0 0 C0.99 0 1.98 0 3 0 C4.69196504 3.38393008 4.11986549 7.22477791 4.09765625 10.9453125 C4.0962413 11.8303244 4.09482635 12.7153363 4.09336853 13.62716675 C4.0877614 16.45981191 4.07520771 19.29237864 4.0625 22.125 C4.05748592 24.04296761 4.05292285 25.96093646 4.04882812 27.87890625 C4.03778966 32.58596782 4.02052025 37.2929706 4 42 C3.67 42 3.34 42 3 42 C3 29.13 3 16.26 3 3 C1.35 3.33 -0.3 3.66 -2 4 C-1.34 2.68 -0.68 1.36 0 0 Z " fill="#C0C4C1" transform="translate(262,86)"/>
<path d="M0 0 C1.65 1.32 3.3 2.64 5 4 C3.44499019 7.81684226 0.96404505 10.19195732 -2 13 C-2 9.33333333 -2 5.66666667 -2 2 C-1.34 2 -0.68 2 0 2 C0 1.34 0 0.68 0 0 Z " fill="#ECF1F3" transform="translate(163,161)"/>
<path d="M0 0 C0.66 0.33 1.32 0.66 2 1 C1.67 1.70125 1.34 2.4025 1 3.125 C-0.78600343 8.25975985 -0.29248809 12.1284628 2 17 C2.66 17 3.32 17 4 17 C4 17.66 4 18.32 4 19 C4.66 19 5.32 19 6 19 C8.1875 20.75 8.1875 20.75 10 23 C9.61328125 25.140625 9.61328125 25.140625 9 27 C-2.47466228 14.30051422 -2.47466228 14.30051422 -2.3359375 5.26953125 C-2 3 -2 3 0 0 Z " fill="#3776AA" transform="translate(159,140)"/>
<path d="M0 0 C0.99 0.33 1.98 0.66 3 1 C2.67386719 1.556875 2.34773437 2.11375 2.01171875 2.6875 C0.85893241 5.32244021 0.76450308 7.13763816 0.8125 10 C0.81894531 10.845625 0.82539063 11.69125 0.83203125 12.5625 C0.98845924 14.83252477 1.36910186 16.81961604 2 19 C0.68 19 -0.64 19 -2 19 C-2.05411124 16.58303128 -2.09372278 14.16728213 -2.125 11.75 C-2.14175781 11.06808594 -2.15851563 10.38617188 -2.17578125 9.68359375 C-2.21213482 5.9391765 -2.07944349 3.17647273 0 0 Z " fill="#D1F0FB" transform="translate(141,183)"/>
<path d="M0 0 C1.4540625 0.0309375 1.4540625 0.0309375 2.9375 0.0625 C2.98004356 2.06204746 2.97830783 4.06291636 2.9375 6.0625 C1.9375 7.0625 1.9375 7.0625 -0.5625 7.1875 C-3.0625 7.0625 -3.0625 7.0625 -4.0625 6.0625 C-4.1875 3.5625 -4.1875 3.5625 -4.0625 1.0625 C-3.0625 0.0625 -3.0625 0.0625 0 0 Z " fill="#33B7E9" transform="translate(153.0625,181.9375)"/>
<path d="M0 0 C0.66 0 1.32 0 2 0 C2.061875 1.1446875 2.061875 1.1446875 2.125 2.3125 C2.77823609 5.32405113 2.77823609 5.32405113 6.0625 6.8125 C7.031875 7.204375 8.00125 7.59625 9 8 C9 9.32 9 10.64 9 12 C5.37386801 11.43040847 3.74482259 10.07625466 1.25 7.4375 C0.63640625 6.79683594 0.0228125 6.15617188 -0.609375 5.49609375 C-1.29773438 4.75552734 -1.29773438 4.75552734 -2 4 C-1.34 2.68 -0.68 1.36 0 0 Z " fill="#D2E6EF" transform="translate(174,145)"/>
<path d="M0 0 C5.10163206 2.28693851 7.2432285 5.20561479 10 10 C10.99 11.485 10.99 11.485 12 13 C10.68 13 9.36 13 8 13 C8 12.34 8 11.68 8 11 C7.34 11 6.68 11 6 11 C4 8 4 8 4 5 C2.68 4.34 1.36 3.68 0 3 C0 2.01 0 1.02 0 0 Z " fill="#2D9DDD" transform="translate(160,138)"/>
<path d="M0 0 C5.28 0.66 10.56 1.32 16 2 C16 2.99 16 3.98 16 5 C13.10765685 5.82638376 11.11257569 6 8 6 C6.97895449 5.02149805 5.9793879 4.02019573 5 3 C3.67139075 2.64830932 2.33841672 2.31229724 1 2 C0.67 1.34 0.34 0.68 0 0 Z " fill="#E6EBEF" transform="translate(192,192)"/>
<path d="M0 0 C0.66 0.33 1.32 0.66 2 1 C1.67 1.99 1.34 2.98 1 4 C0.34 4 -0.32 4 -1 4 C-1 4.66 -1 5.32 -1 6 C-2.75 7.2890625 -2.75 7.2890625 -5 8.625 C-6.11375 9.29402344 -6.11375 9.29402344 -7.25 9.9765625 C-7.8275 10.31429687 -8.405 10.65203125 -9 11 C-9.99 10.34 -10.98 9.68 -12 9 C-8.25 6 -8.25 6 -6 6 C-6 5.34 -6 4.68 -6 4 C-4.03852126 2.61061923 -2.03833424 1.2739589 0 0 Z " fill="#E0E2E0" transform="translate(252,138)"/>
<path d="M0 0 C1.73417089 1.46137997 3.45911765 2.93149032 5.171875 4.41796875 C6.59806059 5.65216782 8.04513751 6.86223844 9.5 8.0625 C11 10 11 10 10.75 12.75 C10.5025 13.4925 10.255 14.235 10 15 C9.34 13.68 8.68 12.36 8 11 C7.01 11 6.02 11 5 11 C4.28385417 9.30729167 3.56770833 7.61458333 2.8515625 5.921875 C1.96193599 3.91409408 0.99581175 1.95698656 0 0 Z " fill="#3786B4" transform="translate(199,176)"/>
<path d="M0 0 C3.3 0 6.6 0 10 0 C9.67 1.32 9.34 2.64 9 4 C6.03 4 3.06 4 0 4 C0 2.68 0 1.36 0 0 Z " fill="#134C82" transform="translate(168,179)"/>
<path d="M0 0 C4.16943993 0.93599672 5.58410733 1.37616099 8 5 C7.67 5.99 7.34 6.98 7 8 C5.824375 6.7625 5.824375 6.7625 4.625 5.5 C2.36278736 2.77011494 2.36278736 2.77011494 0 3 C-0.66 4.32 -1.32 5.64 -2 7 C-2.66 7 -3.32 7 -4 7 C-3.6875 4.625 -3.6875 4.625 -3 2 C-2.01 1.34 -1.02 0.68 0 0 Z " fill="#DBF8FE" transform="translate(160,136)"/>
<path d="M0 0 C0.9075 0.825 1.815 1.65 2.75 2.5 C7.72251194 6.10710907 13.10374583 5.60341782 19 5 C19.99 4.67 20.98 4.34 22 4 C21.67 4.99 21.34 5.98 21 7 C18.24835568 7.13517903 15.50335479 7.23415251 12.75 7.3125 C11.58404297 7.3753418 11.58404297 7.3753418 10.39453125 7.43945312 C4.59912378 7.56328662 4.59912378 7.56328662 1.453125 4.60546875 C0 2 0 2 0 0 Z " fill="#B9D6EC" transform="translate(143,202)"/>
<path d="M0 0 C0.66 0 1.32 0 2 0 C1.67 2.97 1.34 5.94 1 9 C-0.98 9 -2.96 9 -5 9 C-4.67 7.68 -4.34 6.36 -4 5 C-3.34 5 -2.68 5 -2 5 C-1.34 3.35 -0.68 1.7 0 0 Z " fill="#1C77D3" transform="translate(167,194)"/>
<path d="M0 0 C3.67420866 0.30618405 4.78135513 0.75771784 7.3125 3.5625 C8.1478125 4.7690625 8.1478125 4.7690625 9 6 C8.67 6.66 8.34 7.32 8 8 C7.01 7.67 6.02 7.34 5 7 C4.01 7.66 3.02 8.32 2 9 C2 7.02 2 5.04 2 3 C1.34 3 0.68 3 0 3 C0 2.01 0 1.02 0 0 Z " fill="#2682C5" transform="translate(160,177)"/>
<path d="M0 0 C2.4375 0.375 2.4375 0.375 5 1 C5.33 1.66 5.66 2.32 6 3 C5.01 3.495 5.01 3.495 4 4 C3.34786708 6.02463255 3.34786708 6.02463255 3 8 C1.35 6.68 -0.3 5.36 -2 4 C-1.34 2.68 -0.68 1.36 0 0 Z " fill="#DEE9EF" transform="translate(203,174)"/>
<path d="M0 0 C5.52289491 2.23545746 8.44984265 5.40493818 12 10 C7.01256118 8.72414356 4.34137482 6.91418193 1 3 C0.67 2.01 0.34 1.02 0 0 Z " fill="#3995C0" transform="translate(183,162)"/>
<path d="M0 0 C0.33 0 0.66 0 1 0 C1.09796875 0.58007812 1.1959375 1.16015625 1.296875 1.7578125 C2.31879515 7.09646432 3.68373256 10.68885232 7 15 C6.01 15 5.02 15 4 15 C1.34513148 12.19196599 -0.91424202 8.83522074 -1.09765625 4.91015625 C-0.8125 3 -0.8125 3 0 0 Z " fill="#D2E7F6" transform="translate(156,146)"/>
<path d="M0 0 C1 3 1 3 1 6 C-2.33333333 9 -2.33333333 9 -5 9 C-5.33 10.32 -5.66 11.64 -6 13 C-6.66 13 -7.32 13 -8 13 C-8 12.01 -8 11.02 -8 10 C-7.34 10 -6.68 10 -6 10 C-5.7525 9.278125 -5.505 8.55625 -5.25 7.8125 C-3.89016326 4.75286734 -2.17082246 2.5326262 0 0 Z " fill="#E1E2E1" transform="translate(214,91)"/>
<path d="M0 0 C0 0.66 0 1.32 0 2 C-1.8253125 2.1546875 -1.8253125 2.1546875 -3.6875 2.3125 C-7.44388896 2.75794789 -9.81033867 3.93610149 -13 6 C-13.66 5.67 -14.32 5.34 -15 5 C-9.37743903 0.41317394 -7.11167844 -0.11470449 0 0 Z " fill="#4C9EC6" transform="translate(160,177)"/>
<path d="M0 0 C-0.6875 1.9375 -0.6875 1.9375 -2 4 C-4.625 4.75 -4.625 4.75 -7 5 C-7 5.66 -7 6.32 -7 7 C-7.99 7.33 -8.98 7.66 -10 8 C-10 7.01 -10 6.02 -10 5 C-9.01 4.34 -8.02 3.68 -7 3 C-7 2.34 -7 1.68 -7 1 C-2.25 0 -2.25 0 0 0 Z " fill="#EDEEED" transform="translate(247,147)"/>
<path d="M0 0 C3.3 0 6.6 0 10 0 C9.34 1.32 8.68 2.64 8 4 C5.6875 4.25 5.6875 4.25 3 4 C2.01 2.68 1.02 1.36 0 0 Z " fill="#E2EAF1" transform="translate(152,209)"/>
<path d="M0 0 C-0.33 1.65 -0.66 3.3 -1 5 C-3.64 5.33 -6.28 5.66 -9 6 C-3.15384615 0 -3.15384615 0 0 0 Z " fill="#E0E2E1" transform="translate(223,161)"/>
<path d="M0 0 C1.32 0 2.64 0 4 0 C4 0.66 4 1.32 4 2 C4.99 2.33 5.98 2.66 7 3 C7 3.66 7 4.32 7 5 C7.99 5.33 8.98 5.66 10 6 C9.67 6.99 9.34 7.98 9 9 C7.8274869 8.04882866 6.66212985 7.08882991 5.5 6.125 C4.8503125 5.59132812 4.200625 5.05765625 3.53125 4.5078125 C3.0259375 4.01023438 2.520625 3.51265625 2 3 C2 2.34 2 1.68 2 1 C1.34 0.67 0.68 0.34 0 0 Z " fill="#A0B8C9" transform="translate(181,157)"/>
<path d="M0 0 C-1.65 1.65 -3.3 3.3 -5 5 C-5.99 4.67 -6.98 4.34 -8 4 C-8 2.68 -8 1.36 -8 0 C-5.13822943 -1.43088528 -3.06624227 -0.59991697 0 0 Z " fill="#ECEFEE" transform="translate(222,167)"/>
<path d="M0 0 C0.33 0.99 0.66 1.98 1 3 C0.67 3.66 0.34 4.32 0 5 C-0.16669318 8.54171978 -0.16669318 8.54171978 0 12 C0.33 12.33 0.66 12.66 1 13 C1.04063832 14.66617115 1.042721 16.33388095 1 18 C-1.68198764 14.94295868 -2.39287197 13.05569345 -2.3125 9 C-2.30863281 8.154375 -2.30476562 7.30875 -2.30078125 6.4375 C-1.98576274 3.88462271 -1.28396996 2.20986065 0 0 Z " fill="#3E89B6" transform="translate(143,184)"/>
<path d="M0 0 C2.375 0.1875 2.375 0.1875 5 1 C6.3125 3.5625 6.3125 3.5625 7 6 C5 5 3 4 1 3 C1 4.98 1 6.96 1 9 C0.67 9 0.34 9 0 9 C0 6.03 0 3.06 0 0 Z " fill="#1D87D0" transform="translate(159,142)"/>
<path d="M0 0 C0.226875 0.61875 0.45375 1.2375 0.6875 1.875 C1.85311983 4.23871582 1.85311983 4.23871582 4.5625 5 C5.7690625 5.495 5.7690625 5.495 7 6 C7.8125 8.125 7.8125 8.125 8 10 C2.04654255 7.90824468 2.04654255 7.90824468 0 5 C-0.1875 2.3125 -0.1875 2.3125 0 0 Z " fill="#347FBB" transform="translate(144,198)"/>
<path d="M0 0 C-0.33 0.66 -0.66 1.32 -1 2 C-3.72265625 2.6328125 -3.72265625 2.6328125 -7.0625 3.125 C-8.16722656 3.29257813 -9.27195313 3.46015625 -10.41015625 3.6328125 C-11.69212891 3.81457031 -11.69212891 3.81457031 -13 4 C-12.67 3.01 -12.34 2.02 -12 1 C-7.9472484 0.01751476 -4.16138263 -0.08159574 0 0 Z " fill="#DFF9FD" transform="translate(161,175)"/>
<path d="M0 0 C1.2065625 0.0309375 1.2065625 0.0309375 2.4375 0.0625 C2.4375 1.3825 2.4375 2.7025 2.4375 4.0625 C1.7775 4.0625 1.1175 4.0625 0.4375 4.0625 C0.4375 3.0725 0.4375 2.0825 0.4375 1.0625 C-0.2225 1.0625 -0.8825 1.0625 -1.5625 1.0625 C-1.2325 2.7125 -0.9025 4.3625 -0.5625 6.0625 C-1.5525 6.0625 -2.5425 6.0625 -3.5625 6.0625 C-3.605221 4.39638095 -3.60313832 2.72867115 -3.5625 1.0625 C-2.5625 0.0625 -2.5625 0.0625 0 0 Z " fill="#3CBDEF" transform="translate(152.5625,181.9375)"/>
<path d="M0 0 C2.9719385 1.12451727 5.33440687 2.22293791 8 4 C8.6875 6.625 8.6875 6.625 9 9 C7.87105124 8.06725891 6.74699124 7.12859878 5.625 6.1875 C4.99851563 5.66542969 4.37203125 5.14335937 3.7265625 4.60546875 C2 3 2 3 0 0 Z " fill="#80A7B5" transform="translate(192,168)"/>
<path d="M0 0 C1.32 0.33 2.64 0.66 4 1 C2.35 2.98 0.7 4.96 -1 7 C-1.66 6.67 -2.32 6.34 -3 6 C-2.67 4.68 -2.34 3.36 -2 2 C-1.34 2 -0.68 2 0 2 C0 1.34 0 0.68 0 0 Z " fill="#E2E5E4" transform="translate(203,129)"/>
<path d="M0 0 C1.98 0 3.96 0 6 0 C6 0.99 6 1.98 6 3 C3.69 3 1.38 3 -1 3 C-0.67 2.01 -0.34 1.02 0 0 Z " fill="#1A7AD0" transform="translate(152,204)"/>
<path d="M0 0 C1.32 0 2.64 0 4 0 C4.33 1.98 4.66 3.96 5 6 C4.67 5.34 4.34 4.68 4 4 C2.68 4 1.36 4 0 4 C0 2.68 0 1.36 0 0 Z " fill="#2F9FD5" transform="translate(156,182)"/>
<path d="M0 0 C3.36720387 1.39332574 4.9859524 2.9789286 7 6 C3.5625 5.1875 3.5625 5.1875 0 4 C-0.33 3.01 -0.66 2.02 -1 1 C-0.67 0.67 -0.34 0.34 0 0 Z " fill="#57A6CC" transform="translate(160,138)"/>
<path d="M0 0 C0.6875 1.8125 0.6875 1.8125 1 4 C-0.3125 5.75 -0.3125 5.75 -2 7 C-2.66 7 -3.32 7 -4 7 C-3.6875 4.625 -3.6875 4.625 -3 2 C-2.01 1.34 -1.02 0.68 0 0 Z " fill="#B8BEBC" transform="translate(201,136)"/>
<path d="M0 0 C-0.33 0.99 -0.66 1.98 -1 3 C-4.3 2.67 -7.6 2.34 -11 2 C-11 1.67 -11 1.34 -11 1 C-3.375 0 -3.375 0 0 0 Z " fill="#B5C9DD" transform="translate(209,191)"/>
<path d="M0 0 C0.33 0.99 0.66 1.98 1 3 C-1.31 3.66 -3.62 4.32 -6 5 C-6 4.01 -6 3.02 -6 2 C-2.25 0 -2.25 0 0 0 Z " fill="#1466AD" transform="translate(188,175)"/>
<path d="M0 0 C1.65 1.32 3.3 2.64 5 4 C4.67 4.99 4.34 5.98 4 7 C3.566875 6.505 3.13375 6.01 2.6875 5.5 C1.00259517 3.66781808 1.00259517 3.66781808 -2 4 C-2 3.34 -2 2.68 -2 2 C-1.34 2 -0.68 2 0 2 C0 1.34 0 0.68 0 0 Z " fill="#D4E8F7" transform="translate(163,161)"/>
<path d="M0 0 C1.65 0 3.3 0 5 0 C5.33 1.32 5.66 2.64 6 4 C4.125 3.6875 4.125 3.6875 2 3 C1.34 2.01 0.68 1.02 0 0 Z " fill="#35659E" transform="translate(190,187)"/>
<path d="M0 0 C2.475 0.495 2.475 0.495 5 1 C5 2.65 5 4.3 5 6 C4.01 5.67 3.02 5.34 2 5 C0.8125 2.4375 0.8125 2.4375 0 0 Z " fill="#1E5B97" transform="translate(169,183)"/>
<path d="M0 0 C0.66 0 1.32 0 2 0 C2.66 1.32 3.32 2.64 4 4 C2.02 4.99 2.02 4.99 0 6 C-1 3 -1 3 0 0 Z " fill="#1E64AF" transform="translate(196,181)"/>
</svg>
